<svg xmlns="http://www.w3.org/2000/svg" xmlns:xlink="http://www.w3.org/1999/xlink" version="1.1" x="0px" y="0px" viewBox="0 0 66 82.5" enable-background="new 0 0 66 66" xml:space="preserve"><g><path d="M40.2,43.5l0.1-2H25.8l0.2,2c0,0.3,0.3,0.6,0.6,0.6h0.3c-0.1,0.6-0.2,1.2-0.2,1.8l5.5,3.3   c0.2-1.5,0.4-3.1,0.6-4.7c0-0.1,0-0.3,0-0.4h0.4c0,1.9,0,3.7,0.1,5.4l5.9-3.5c0-0.6,0-1.2,0-1.9c0,0,0,0,0,0h0.4   C39.9,44.1,40.2,43.9,40.2,43.5z"/><path d="M25.5,54.2l3.6-2.2L26,50.2C25.8,51.5,25.7,52.9,25.5,54.2z"/><path d="M25,62c0,1.6,1.3,3,3,3c0,0,0,0,0,0c1.6,0,3-1.3,3-3c0-2.3,0.2-4.5,0.4-6.7l-6.3,3.8C25,60,25,61,25,62z"/><path d="M39.6,53.7c-0.2-1-0.3-2-0.3-3.1L36.9,52L39.6,53.7z"/><path d="M41.1,59.1l-7.3-4.3c0.5,2.8,1.2,5.5,2.5,8.4c0.6,1.5,2.4,2.2,3.9,1.6c1.5-0.6,2.2-2.4,1.6-3.9   C41.5,60.3,41.3,59.7,41.1,59.1z"/><circle cx="33.1" cy="6.8" r="5.8"/><path d="M48.6,41.5c-3.2,1.9,8.2-4.9-15.6,9.3c-23.8-14.2-12.4-7.4-15.6-9.3h-3.9c3.6,2.1-9.2-5.5,17.6,10.5   C4.6,67.8,17.3,60.2,13.7,62.4h3.9c3.2-1.9-8.1,4.8,15.5-9.2c23.5,14,12.3,7.3,15.5,9.2h3.9c-3.6-2.1,9.1,5.4-17.4-10.4   c26.8-16,13.9-8.3,17.6-10.5H48.6z"/><path d="M4.1,34.7v5.8h57.9v-5.8H4.1z M6.8,39.1c-0.6,0-1-0.5-1-1c0-0.6,0.5-1,1-1c0.6,0,1,0.5,1,1   C7.8,38.6,7.4,39.1,6.8,39.1z M9.3,39.1c-0.6,0-1-0.5-1-1c0-0.6,0.5-1,1-1c0.6,0,1,0.5,1,1C10.4,38.6,9.9,39.1,9.3,39.1z    M17.8,39.1c-0.6,0-1-0.5-1-1c0-0.6,0.5-1,1-1c0.6,0,1,0.5,1,1C18.8,38.6,18.3,39.1,17.8,39.1z"/><path d="M23.9,33.1c0.8,0.8,2,0.8,2.8,0c0.8-0.8,0.8-2,0-2.8l-4.1-4l1.8-3.1l0.3,3.8l2.7,2.7   c1.1,1.1,1.2,2.9,0.1,4.1h11.2c-1-1.2-1-3,0.1-4.1l2.7-2.7l0.3-3.8l1.8,3.1l-4.1,4c-0.8,0.8-0.8,2,0,2.8c0.8,0.8,2,0.8,2.8,0   l5.2-5.1c0.6-0.6,0.8-1.6,0.3-2.4l-4.9-8.4c-2.5-4.3-16.1-5.9-19.6,0l-4.9,8.4c-0.5,0.8-0.3,1.8,0.3,2.4L23.9,33.1z"/></g><text x="0" y="81" fill="#000000" font-size="5px" font-weight="bold" font-family="'Helvetica Neue', Helvetica, Arial-Unicode, Arial, Sans-serif">Created by ProSymbols</text><text x="0" y="86" fill="#000000" font-size="5px" font-weight="bold" font-family="'Helvetica Neue', Helvetica, Arial-Unicode, Arial, Sans-serif">from the Noun Project</text></svg>