<svg xmlns="http://www.w3.org/2000/svg" xmlns:xlink="http://www.w3.org/1999/xlink" version="1.1" x="0px" y="0px" viewBox="0 0 115.031 289.19" style="enable-background:new 0 0 115.031 231.352;" xml:space="preserve"><g><path d="M78.346,41.953c-2.775-10.09-4.925-17.88-5.442-19.119c-3.842-9.212-13.023-9.159-17.197-7.672   c-4.173,1.487-5.588,6.177-8.842,8.73c-0.514,0.403-1.203,0.716-1.997,0.956c0.172-1.65,0.17-3.344-0.038-5.061   C43.334,7.455,32.123-1.331,19.791,0.166C7.457,1.659-1.329,12.871,0.166,25.204c1.497,12.333,12.707,21.119,25.04,19.623   c9.077-1.101,16.224-7.464,18.774-15.661c5.068-2.094,9.172-5.794,11.641-7.484c3.508-2.401,7.027-0.475,8.562,2.17   c0.482,0.831,3.05,9.925,6.436,22.203c0.174-0.199,0.35-0.386,0.523-0.591C72.951,43.328,75.558,42.071,78.346,41.953z"/><path d="M33.633,58.92c-0.269-0.123-0.455-0.217-0.551-0.266L33.07,58.65c-3.836-2.191-8.723-0.858-10.914,2.978   c-1.607,2.812-1.313,6.185,0.466,8.651c0.648,0.897,1.488,1.68,2.513,2.265c0.719,0.38,8.49,4.807,20.293,4.848   c0.016,0,0.033,0,0.049,0c0.355,0,0.725-0.018,1.087-0.026c2.385-0.06,4.914-0.313,7.546-0.833   c3.35-0.662,6.855-1.738,10.424-3.387c3.827-1.762,7.698-4.159,11.516-7.291c2.375-1.948,4.729-4.186,7.039-6.728   c0.598-0.657,1.193-1.327,1.785-2.026c2.855-3.37,2.438-8.418-0.934-11.273c-1.47-1.247-3.261-1.869-5.049-1.896   c-2.31-0.033-4.616,0.928-6.223,2.827c-0.473,0.558-0.944,1.086-1.413,1.602c-4.733,5.2-9.271,8.336-13.42,10.257   c-4.566,2.099-8.732,2.768-12.406,2.772c-0.597,0.001-1.174-0.023-1.742-0.057c-3.044-0.182-5.657-0.811-7.543-1.435   C35.026,59.528,34.167,59.166,33.633,58.92z"/><path d="M114.019,67.513L96.887,55.99c-1.057-0.719-2.495-0.444-3.212,0.611c-0.664,0.976-0.473,2.271,0.392,3.03   c1.355,5.775-0.009,18.456,0.045,21.859c0.061,3.668,3.156,14.683,0.916,15.249c-0.54,0.137-2.011-3.866-3.954-10.063   c1.78-2.289,2.256-5.466,0.953-8.279c-0.956-2.063-2.683-3.521-4.679-4.201c-1.176-4.075-2.406-8.425-3.63-12.81   c-2.281,2.426-4.648,4.617-7.094,6.566c0.701,2.559,1.406,5.131,2.107,7.689c-5.208,2.058-9.775,2.826-13.834,2.829   c-2.457,0.001-4.762-0.293-6.925-0.79c-3.631,1.009-7.342,1.559-11.101,1.671c-0.465,0.014-0.929,0.038-1.395,0.038h-0.004H45.42   c-9.284-0.033-16.228-2.647-19.737-4.326c-0.551-0.263-1.025-0.506-1.402-0.709l-0.027-0.015l-0.111-0.062   c-2.32-1.325-3.984-3.473-4.689-6.05c-0.702-2.578-0.359-5.276,0.966-7.594c1.775-3.109,5.104-5.04,8.69-5.04   c1.729,0,3.441,0.455,4.952,1.317c0.013,0.004,0.17,0.083,0.396,0.186c0.393,0.183,1.191,0.529,2.313,0.902   c1.446,0.476,3.539,1.022,6.045,1.263c-3.031-6.398-8.592-11.062-14.717-10.415C19.351,49.771,9.31,58.364,9.593,73.845   c0.514,21.284,3.636,34.123,13.672,54.11c4.309,7.166,9.264,10.095,14.221,10.819c1.005,5.27,1.883,12.574,1.887,22.124   c-0.002,13.619-1.792,31.77-7.628,54.889c-1.691,6.692,2.364,13.491,9.059,15.181c1.027,0.26,2.057,0.384,3.07,0.384   c5.589,0,10.679-3.777,12.111-9.443c6.298-24.954,8.388-45.19,8.388-61.01c0.008-15.6-2.038-26.883-4.001-34.112   c-0.208-2.209-1.052-5.003-2.628-8.645c-4.171-7.957-6.794-17.297-8.668-26.412c4.665,1.665,9.956,2.744,15.821,2.745   c0.009,0,0.019,0,0.028,0c5.637,0,11.719-1.04,18.075-3.35c3.987,14.361,7.299,25.923,8.298,28.117   c2.919,6.411,11.986,7.154,16.611,2.305c4.623-4.85,0.771-18.39-2.523-33.153c-2.519-11.295,3.17-15.658,5.985-17.087l0.047,0.031   c1.057,0.719,2.495,0.444,3.212-0.611C115.349,69.67,115.076,68.232,114.019,67.513z"/></g><text x="0" y="246.352" fill="#000000" font-size="5px" font-weight="bold" font-family="'Helvetica Neue', Helvetica, Arial-Unicode, Arial, Sans-serif">Created by Gan Khoon Lay</text><text x="0" y="251.352" fill="#000000" font-size="5px" font-weight="bold" font-family="'Helvetica Neue', Helvetica, Arial-Unicode, Arial, Sans-serif">from the Noun Project</text></svg>