<svg xmlns="http://www.w3.org/2000/svg" xmlns:xlink="http://www.w3.org/1999/xlink" version="1.1" x="0px" y="0px" viewBox="0 0 144.096 287.72749999999996" style="enable-background:new 0 0 144.096 230.182;" xml:space="preserve"><g><path d="M124.213,70.783l2.278,0.692l-0.901,2.784c-0.733-0.102-1.358-0.006-1.493,0.413c-0.384,1.184,0.265,2.456,1.45,2.84   c1.184,0.384,2.455-0.266,2.84-1.45c0.136-0.418-0.314-0.863-0.967-1.21l0.913-2.819l3.422,1.04l-0.935,2.881   c-0.732-0.102-1.356-0.006-1.492,0.413c-0.384,1.184,0.265,2.455,1.45,2.84c1.184,0.384,2.455-0.265,2.84-1.449   c0.135-0.419-0.314-0.863-0.966-1.209l0.944-2.916l1.262,0.383c0.601,1.005,1.646,2.106,3.478,2.699   c3.904,1.265,5.759-1.603,5.759-1.603s0.181-3.41-3.725-4.676c-1.829-0.592-3.322-0.315-4.398,0.146l-1.247-0.43l0.944-2.914   c0.733,0.102,1.356,0.004,1.492-0.413c0.384-1.185-0.266-2.457-1.449-2.84c-1.185-0.384-2.457,0.265-2.84,1.45   c-0.137,0.418,0.313,0.862,0.966,1.21l-0.934,2.881l-3.38-1.165l0.913-2.819c0.732,0.102,1.356,0.005,1.491-0.413   c0.385-1.185-0.264-2.456-1.448-2.839c-1.185-0.385-2.456,0.265-2.84,1.449c-0.137,0.418,0.313,0.862,0.966,1.21l-0.902,2.784   l-3.039-1.047C124.798,68.057,124.65,69.453,124.213,70.783z"/><path d="M48.785,46.989c-0.436,1.725-0.682,3.283-0.786,4.709c-0.504,6.864,2.514,10.45,6.365,12.263l6.812-8.377l1.222-1.503   l1.938-2.383L75.881,37.5c-1.08-0.964-3.057-2.584-5.507-3.931C66.326,41.619,58.121,46.899,48.785,46.989z"/><path d="M73.018,53.7l-9.774,12.02c2.746,0.025,4.76-0.316,4.76-0.316s1.316-3.983,7.566-2.795   c0.653,0.124,1.343,0.287,2.108,0.535c0.147,0.048,0.28,0.095,0.417,0.143c7.43,2.56,1.315,4.735,12.545,8.375   c2.241,0.727,4.179,0.812,5.862,0.501c0.362-0.326,0.724-0.652,1.094-1c4.062-3.793,7.854-8.085,8.921-9.309   c0.384-0.44,0.569-0.658,0.576-0.667c0.126-0.148,0.265-0.281,0.398-0.421l-1.065-0.367c0.641-3.788,0.695-11.145-7.646-13.85   c-11.44-3.708-7.404,1.917-15.496-0.705c-1.149-0.373-2.084-0.793-2.875-1.236l-7.357,9.048L73.018,53.7z"/><path d="M53.626,0.591c-12.1-2.816-24.193,4.707-27.012,16.807c-2.818,12.102,4.707,24.193,16.809,27.012   c1.285,0.299,2.57,0.475,3.844,0.548c0.701,0.039,1.399,0.048,2.091,0.022c8.13-0.297,15.535-5.016,19.225-12.298   c0.298-0.589,0.576-1.192,0.824-1.813c0.418-1.046,0.763-2.137,1.026-3.268C73.249,15.501,65.724,3.409,53.626,0.591z"/><path d="M120.827,72.821c0.217-0.256,0.408-0.524,0.587-0.798c0.378-0.578,0.673-1.189,0.886-1.822   c0.464-1.38,0.535-2.851,0.231-4.252c-0.186-0.858-0.511-1.688-0.977-2.454c-0.436-0.716-0.986-1.377-1.66-1.949   c-2.295-1.944-5.367-2.367-7.996-1.377c-0.816,0.307-1.586,0.754-2.28,1.331c-0.354,0.295-0.692,0.617-1,0.98   c0,0-0.191,0.225-0.594,0.686c-0.43,0.494-1.082,1.232-1.891,2.122c-1.826,2.009-4.457,4.797-7.172,7.333   c-0.512,0.481-1.027,0.95-1.539,1.403c-1.431,1.27-2.826,2.403-3.994,3.213c-0.35,0.246-0.674,0.455-0.967,0.635   c-0.257,0.157-0.48,0.285-0.671,0.385c-1.492-0.314-3.044-1.103-4.774-2.528c-2.759-2.246-5.458-6.04-7.457-9.621   c-0.539-0.333-1.311-0.675-2.503-1.061c-0.52-0.169-1.013-0.296-1.49-0.401c-0.795-0.176-1.536-0.275-2.201-0.275   c-2.736,0-3.41,1.527-3.479,1.701l-0.412,1.056l-1.137,0.25c-0.082,0.012-2.065,0.348-4.801,0.348   c-0.338,0-0.686-0.006-1.039-0.018c-0.278-0.008-0.559-0.02-0.845-0.037L39.209,95.278c0.288,0.876,0.458,1.788,0.498,2.717   c0.065,1.542-0.218,3.12-0.91,4.614c-1.634,3.52-5.196,5.794-9.076,5.794c-0.38,0-0.757-0.023-1.13-0.066l-7.038,8.655   c-0.022,0.027-0.052,0.047-0.075,0.074v10.752v90c0,6.83,5.537,12.363,12.363,12.363c6.828,0,12.365-5.533,12.365-12.363v-82.271   h4.635v82.271c0,6.83,5.537,12.363,12.363,12.363c6.828,0,12.365-5.533,12.365-12.363v-90V108.88V86.958   c0.398,0.363,0.801,0.724,1.22,1.074c3.794,3.17,8.753,5.812,14.628,6.293c0.167,0.014,0.327,0.041,0.496,0.051   c0.043,0.003,0.084,0.011,0.127,0.013c0.12,0.006,0.239,0.008,0.358,0.01c0.022,0,0.044,0.003,0.066,0.003   c0.022,0,0.044-0.003,0.066-0.003c0.253-0.002,0.508-0.015,0.766-0.041c0.01-0.001,0.019,0,0.029-0.001v-0.002   c2.401-0.28,4.162-1.045,5.799-1.874c0.691-0.363,1.36-0.752,2.014-1.162c2.014-1.262,3.873-2.728,5.717-4.289   C114.055,80.864,120.677,72.98,120.827,72.821z"/><path d="M22.675,106.104l-1.112,1.367l-0.086,0.105l-4.579,5.632c-0.696,0.855-0.567,2.115,0.29,2.813   c0.857,0.697,2.117,0.566,2.813-0.289l1.476-1.814l4.945-6.082c-0.306-0.108-0.61-0.226-0.908-0.365   C24.533,107.014,23.594,106.559,22.675,106.104z"/><path d="M66.913,51.698l-0.182,0.224l-6.752,8.304l-3.655,4.496l-1.351,1.661L35.545,90.276c1.127,0.807,2.054,1.82,2.743,2.967   l20.989-25.813l1.495-1.838l0.554-0.682l10.026-12.331l0.02-0.024l7.385-9.083l1.256-1.545l24.213-29.778   c0.697-0.857,0.567-2.117-0.29-2.814c-0.856-0.697-2.116-0.567-2.813,0.29l-22.53,27.708l-1.921,2.363L66.913,51.698z"/><path d="M22.137,103.595c0.144,0.073,0.289,0.147,0.434,0.22c0.458,0.232,0.924,0.465,1.398,0.698   c0.776,0.381,1.568,0.762,2.389,1.145c0.469,0.218,0.949,0.376,1.432,0.497c0.641,0.161,1.288,0.248,1.931,0.248   c0.158,0,0.313-0.024,0.471-0.033c2.844-0.169,5.508-1.835,6.791-4.601c0.685-1.477,0.878-3.055,0.652-4.553   c-0.005-0.035-0.008-0.071-0.014-0.106c-0.125-0.761-0.359-1.499-0.694-2.191c-0.587-1.216-1.488-2.285-2.647-3.086   c-0.371-0.257-0.763-0.492-1.187-0.688c-0.205-0.095-0.4-0.188-0.601-0.283c-4.836-2.271-8.455-4.425-11.013-6.296   c-1-0.731-1.839-1.42-2.526-2.055c-0.199-0.185-0.39-0.366-0.564-0.541C15.974,79.5,16.023,78.486,16,78.245   c-0.011-0.255,0.117-1.005,1.315-2.397c0.929-1.102,2.455-2.317,4.162-3.45v9.654c2.134,1.723,5.904,4.24,12.312,7.212   l19.275-23.705c-1.772-0.904-3.387-2.152-4.644-3.88c-1.901-2.615-2.715-5.956-2.442-9.98H29.206c-1.224,0-2.376,0.292-3.404,0.798   c-1.763,0.64-6.42,2.438-11.402,5.437c-3.08,1.877-6.322,4.197-9.125,7.38C2.519,68.441,0.013,72.829,0,78.245   c-0.022,5.507,2.733,10.787,7.103,15.066c1.777,1.757,3.845,3.445,6.241,5.101c2.369,1.636,5.063,3.239,8.134,4.842   C21.695,103.368,21.916,103.481,22.137,103.595z"/></g><text x="0" y="245.182" fill="#000000" font-size="5px" font-weight="bold" font-family="'Helvetica Neue', Helvetica, Arial-Unicode, Arial, Sans-serif">Created by Gan Khoon Lay</text><text x="0" y="250.182" fill="#000000" font-size="5px" font-weight="bold" font-family="'Helvetica Neue', Helvetica, Arial-Unicode, Arial, Sans-serif">from the Noun Project</text></svg>