<svg xmlns="http://www.w3.org/2000/svg" xmlns:xlink="http://www.w3.org/1999/xlink" version="1.1" x="0px" y="0px" viewBox="0 0 66 82.5" enable-background="new 0 0 66 66" xml:space="preserve"><g><path d="M20.1,13.6c-0.5,0.4-0.7,0.9-0.8,1.5l3-1.6C21.7,13.1,20.8,13.1,20.1,13.6z"/><path d="M35.3,6.6c0.7-0.4,1.6-0.1,2,0.6c0.4,0.7,0.1,1.6-0.6,2l-3.7,2c0.9,0.7,2.1,1.1,3.3,1.1   c3.1,0,5.6-2.5,5.6-5.6c0-3.1-2.5-5.6-5.6-5.6c-3.1,0-5.6,2.5-5.6,5.6c0,0.8,0.2,1.5,0.5,2.2L35.3,6.6z"/><path d="M26.7,12.3l-9.4,5c-0.2,0.1-0.3,0.4-0.2,0.7c0.1,0.2,0.4,0.3,0.7,0.2l9.1-4.9C26.7,13,26.7,12.6,26.7,12.3   z"/><path d="M36.4,7.6c-0.1-0.2-0.4-0.3-0.7-0.2L31.1,10c0.3,0.2,0.5,0.4,0.8,0.7l4.4-2.3C36.5,8.2,36.6,7.9,36.4,7.6z   "/><path d="M44.4,15.9c-3.6-2.4-7.3-3.4-10.8-2.7l2.7,3.7c2.3-0.7,3.5-2,5.3-1.1L35.9,18l-4.8-6.7   c-0.6-0.9-1.8-1.1-2.7-0.4c-0.9,0.6-1.1,1.8-0.4,2.7l5.7,8c0.5,0.7,1.4,1,2.3,0.7l7.1-2.8c-0.3,0.7-0.8,1.4-1.6,1.7l-5.1,2   c-1.1,0.5-2.6,0.1-3.4-1l-4.7-6.5c-0.2,0.1,0.1-0.1-2.7,1.8l-1.2-1.6l-3.5,1.8l2.8,3.6c0.7,0.8,1.8,1,2.7,0.4l1.3-1l1.7,21.7   c0,0.2,0.1,0.4,0.3,0.5l-0.9,9.5c0,0.2,0,1.6-0.2,9.7c0,1.6,1.3,2.9,2.9,2.9c0,0,0,0,0,0c1.6,0,2.9-1.3,2.9-2.8l0.1-9.4l0.9-9.9   c0,0,0,0,0,0H37l-0.8,9.5c0,0.2,0,1.6-0.2,9.7c0,1.6,1.3,2.9,2.9,2.9c0,0,0,0,0,0c1.6,0,2.9-1.3,2.9-2.8l0.1-9.4l0.9-9.9   c0,0,0-0.1,0-0.1c0.1-0.1,0.2-0.3,0.3-0.4L45,17.1C45,16.6,44.8,16.1,44.4,15.9z"/><path d="M18.7,21.3c0.9,2.4,4.2,3.5,6.2,2.7C21.3,23.5,20.3,22.5,18.7,21.3z"/><path d="M20.7,21c1.2,2.3,4.8,3,6.5,1.9C24,22.9,22.8,22.3,20.7,21z"/><path d="M45.7,13.2c2.5,2.7,2.7,4.1,3.1,6.1C49.7,16.8,47.7,13.9,45.7,13.2z"/><path d="M43.3,12.6c2.5,2.1,3.1,3.3,3.8,5.6C47.6,15.6,45.2,12.8,43.3,12.6z"/></g><text x="0" y="81" fill="#000000" font-size="5px" font-weight="bold" font-family="'Helvetica Neue', Helvetica, Arial-Unicode, Arial, Sans-serif">Created by ProSymbols</text><text x="0" y="86" fill="#000000" font-size="5px" font-weight="bold" font-family="'Helvetica Neue', Helvetica, Arial-Unicode, Arial, Sans-serif">from the Noun Project</text></svg>