<svg width="50.325" height="82.5" xmlns="http://www.w3.org/2000/svg" xml:space="preserve" enable-background="new 0 0 66 66" version="1.1">

 <g>
  <title>Layer 1</title>
  <g stroke="null" id="svg_1">
   <path stroke="null" id="svg_2" d="m43.48975,24.20305c1.00612,1.51234 1.50918,2.52057 1.76072,3.15071c-0.62883,-0.12603 -1.63495,-0.50411 -2.64107,-0.8822l-0.50306,5.16717c7.92322,2.52057 11.19312,-1.63837 5.53368,-10.33434c-0.75459,-1.13426 -2.26378,-1.51234 -3.52143,-0.75617c-1.00612,0.8822 -1.38342,2.52057 -0.62883,3.65483z"/>
   <path stroke="null" id="svg_3" d="m21.60657,55.8362l0,6.42745c0.3773,-0.75617 0.75459,-1.13426 0.75459,-1.26029c0.62883,-0.8822 -0.62883,-4.03291 1.88648,-4.03291c0.3773,0 0.75459,0.12603 0.88036,0.25206c1.88648,0.75617 3.01837,-4.411 3.14413,-6.42745c-22.63777,-11.09051 19.87093,9.70419 -17.73292,-8.69597l1.00612,12.98094c0,0.25206 0.25153,0.50411 0.50306,0.63014c0,0 0,0 0,0.12603l0,22.18102c0,2.14248 1.63495,3.78086 3.77296,3.78086s3.77296,-1.63837 3.77296,-3.78086l0,-22.18102c0,0 0,0 0,0l2.01225,0z"/>
   <path stroke="null" id="svg_4" d="m10.28769,37.81413l15.9722,7.81377c0,0 0,-0.12603 0,-0.12603c-0.88036,-3.65483 0.50306,-7.81377 0.50306,-7.9398c0.75459,-2.14248 2.64107,-3.40277 4.52755,-4.15894l0.50306,-6.67951c1.63495,1.00823 3.01837,1.7644 4.40179,2.39454l0.75459,-5.2932c-5.91097,-3.02468 -18.61328,-12.98094 -28.29721,-2.39454c-0.25153,0.25206 -6.28827,7.0576 -8.67781,14.11519c-0.50306,1.26029 0.25153,2.77263 1.50918,3.15071c1.25765,0.50411 2.76684,-0.25206 3.14413,-1.51234c1.13189,-3.15071 3.14413,-6.42745 4.90485,-8.822l0.75459,9.45214z"/>
   <path stroke="null" id="svg_5" d="m21.60657,73.85828l0,4.15894c0,2.14248 1.63495,3.78086 3.77296,3.78086c1.88648,0 3.52143,-1.51234 3.77296,-3.27674c-4.15026,-1.38631 -6.41403,-3.15071 -7.54592,-4.66305z"/>
   <circle stroke="null" id="svg_6" r="7.21392" cy="8.9536" cx="20.60045"/>
   <path stroke="null" id="svg_7" d="m37.32724,15.129l0.88036,0.12603l0,-0.25206l1.25765,0.12603l-2.76684,18.27413c0,0 -7.16863,0.25206 -8.80358,4.53703c0,0 -1.38342,3.90688 -0.3773,7.43568c0,0 0,0.37809 -0.12577,0.75617l15.9722,7.9398c0.12577,-1.26029 0.3773,-2.39454 1.00612,-2.89866c0,0 0.75459,-0.75617 2.13801,0c0,0 1.00612,-0.63014 -0.12577,-2.01646c0,0 6.5398,-12.09874 -5.65944,-14.61931l0.12577,-1.89043l0.75459,-7.9398l0.88036,-9.20008l1.25765,0.12603l0,0.25206l0.88036,0.12603c0.12577,0 0.25153,-0.12603 0.25153,-0.12603l0.12577,-1.13426c0,-0.12603 -0.12577,-0.25206 -0.12577,-0.25206l-0.88036,-0.12603l0,0.25206l-1.25765,-0.12603l0.25153,-2.14248l1.00612,0.12603l0,0.25206l0.62883,0c0.12577,0 0.25153,0 0.25153,-0.12603l0.12577,-1.13426c0,-0.12603 -0.12577,-0.25206 -0.12577,-0.25206l-0.88036,-0.12603l0,0.25206l-1.00612,-0.12603l0.12577,-1.38631l1.25765,-0.12603l0.12577,-1.51234l-1.13189,-0.25206l-0.25153,-2.14248l-1.50918,-0.12603l-1.13189,2.14248l-0.88036,-0.12603l0,1.51234l0.88036,0.37809l-0.25153,1.26029l-1.00612,-0.12603l0,-0.25206l-0.88036,-0.12603c-0.12577,0 -0.12577,0.12603 -0.25153,0.25206l-0.12577,1.13426c0,0.12603 0.12577,0.25206 0.12577,0.25206l0.88036,0.12603l0,-0.25206l1.00612,0.12603l-0.3773,2.14248l-1.25765,-0.12603l0,-0.25206l-0.88036,-0.12603c-0.12577,0 -0.12577,0 -0.25153,0.12603l-0.12577,1.13426c0.12577,0.12603 0.12577,0.25206 0.25153,0.25206z"/>
   <path stroke="null" id="svg_8" d="m47.38847,61.63351l-0.50306,-1.00823c0,0 -2.51531,0.8822 -3.2699,-1.00823c0,0 -0.12577,-0.50411 -0.12577,-1.26029l-13.83419,-6.80554c-0.25153,2.01646 -1.50918,8.44391 -5.03062,6.93157c0,0 -0.62883,-0.37809 -0.88036,0.63014c0,0 0.3773,1.63837 -0.3773,2.89866c0,0.12603 -9.05511,11.97271 9.05511,16.38371c-0.12577,1.00823 -0.25153,2.26851 -0.25153,2.14248c-0.12577,0.63014 0.3773,1.13426 1.00612,1.26029c0.62883,0.12603 1.25765,-0.37809 1.25765,-1.00823l0.25153,-2.14248c9.4324,1.00823 15.21761,-4.03291 11.82195,-14.61931c0,-0.37809 0,-1.63837 0.88036,-2.39454z"/>
   <path stroke="null" id="svg_9" d="m-1.66002,34.03327c-0.12577,0.37809 0,0.63014 0.25153,0.8822l0.12577,0.12603c0.12577,-0.37809 0.25153,-0.75617 0.50306,-1.26029l0,0c-0.3773,-0.12603 -0.62883,0 -0.88036,0.25206z"/>
   <path stroke="null" id="svg_10" d="m50.28108,58.86089l-44.26941,-21.6769c-0.12577,0.37809 -0.25153,0.75617 -0.50306,1.13426l44.26941,21.6769c0.25153,0.12603 0.62883,0 0.88036,-0.25206c0.12577,-0.37809 0,-0.75617 -0.3773,-0.8822z"/>
  </g>
 </g>
</svg>