<svg width="140.3" height="230" xmlns="http://www.w3.org/2000/svg" version="1.1" xml:space="preserve">
 <g>
  <title>Layer 1</title>
  <g stroke="null" id="svg_1">
   <path stroke="null" d="m71.10598,218.39272l0,-89.6026l0,-5.44386c-1.85367,1.69349 -5.05667,3.63289 -10.15537,3.86785c-0.60592,0.02788 -1.23199,0.03186 -1.86506,0.01095c-0.73814,-0.0229 -1.44126,-0.05277 -2.11461,-0.08164c-1.89308,-0.07467 -3.53047,-0.14038 -4.95685,-0.07467c-0.92202,0.04181 -1.76261,0.14237 -2.55942,0.3375c-1.43863,0.35144 -2.73016,1.03242 -4.06022,2.32668c-1.30817,1.27435 -2.65574,3.13808 -4.22746,5.87992c-0.16637,0.28972 -0.352,0.58043 -0.5315,0.87014c-3.57075,5.77738 -9.68166,11.53186 -16.89146,13.98498l0,67.92375c0,6.79885 4.84652,12.30841 10.82521,12.30841s10.82521,-5.50956 10.82521,-12.30841l0,-81.90873l4.06022,0l0,81.90873c0,6.79885 4.84652,12.30841 10.82521,12.30841c5.97957,0.001 10.82609,-5.50857 10.82609,-12.30742z" id="svg_2"/>
   <path stroke="null" d="m60.64239,109.13629c0.0394,0.31162 0.09719,0.58839 0.17162,0.83032c0.15323,0.47589 0.42905,1.04138 1.33181,1.6009c2.82123,1.75024 4.25286,2.00112 6.39636,1.90356c0.59104,-0.02788 1.22673,-0.08164 1.93511,-0.14735l0.17162,-0.01294c0.15586,-0.00697 0.30734,0.00299 0.45619,0.01593l0,-3.39295l0,-5.60215l-0.99995,0.45896l-9.46276,4.34573z" id="svg_3"/>
   <ellipse stroke="null" transform="matrix(0.198589 -0.9696 0.85276 0.225799 25.2701 95.4708)" cx="75.71947" cy="8.34773" rx="22.495" ry="22.495" id="svg_4"/>
   <path stroke="null" d="m39.69947,134.52469c2.08221,-3.63189 3.86233,-5.90182 5.69587,-7.30659c1.28628,-0.98563 2.59882,-1.54614 4.06022,-1.8478c2.09885,-0.43407 4.50416,-0.3385 7.57931,-0.21505c0.67072,0.02688 1.36858,0.05575 2.10147,0.07965c7.16164,0.23695 10.6282,-2.89914 11.96964,-4.59164c0.20752,-0.26283 0.36951,-0.49281 0.48071,-0.66804c0.8152,-1.27634 1.10853,-2.5477 0.80994,-3.48753c-0.20664,-0.65211 -0.67685,-1.05034 -1.29065,-1.1499c-0.15586,-0.02489 -0.31347,-0.0448 -0.48684,-0.02887c-3.67583,0.34447 -5.4647,0.39525 -9.31215,-1.99117c-1.09452,-0.67998 -1.77574,-1.53021 -2.14,-2.67514c-0.23992,-0.75963 -0.35462,-1.68652 -0.33711,-2.8185l10.41805,-4.78378l1.85718,-0.85222l17.70929,-8.13094l13.58077,-6.23634c0.05166,-0.4968 0.12784,-0.99558 0.24867,-1.49338l0.89313,-3.65877l0.19964,-0.81538c1.05074,-4.29296 4.51729,-7.29465 8.43216,-7.29465c0.79068,0 1.58048,0.12445 2.35015,0.36538c2.25208,0.70985 4.12677,2.37845 5.27907,4.69219c0.0289,0.05874 0.05166,0.11947 0.07881,0.17721l10.23417,-4.69916l0.41329,1.30222l16.46942,-6.77197l-3.87109,-12.17102l-16.46942,6.77197l0.41417,1.30123l-34.70144,12.64591l-16.88271,6.15271l-4.37544,1.59493l-7.96108,2.89715c0.15673,-1.62081 -0.00525,-3.23864 -0.4956,-4.77881c-1.23286,-3.8778 -4.39383,-6.98004 -8.24828,-8.09609c-3.68633,-1.06826 -7.36829,-0.10155 -10.1291,2.6841c-0.09282,0.10454 -9.3393,10.33317 -19.67767,7.1035c0.20752,0.32954 0.42818,0.66605 0.66722,1.01052c1.71533,2.46308 5.02865,6.2682 11.26127,11.0938c0.21365,0.16527 0.42993,0.33053 0.64971,0.49879c0.12259,-0.07666 0.24167,-0.1583 0.36863,-0.22799c0.25568,-0.14137 0.51924,-0.2708 0.79243,-0.3833c4.16442,-1.71241 8.76314,0.73773 10.2692,5.47273c1.29678,4.0809 -0.12784,8.51922 -3.20825,10.76625c-0.4956,0.36239 -1.0306,0.67302 -1.60763,0.90996c-0.70487,0.28972 -1.422,0.451 -2.13475,0.51173c-1.6444,2.07679 -3.97003,3.2914 -6.48567,3.2914l-0.00613,0c-1.64528,0 -3.25378,-0.52866 -4.65214,-1.52524c-2.44559,-1.75024 -4.69329,-3.48355 -6.76499,-5.2079c-5.14248,-4.28101 -9.16505,-8.50627 -12.18504,-12.79724c-3.01999,-4.28101 -5.02077,-8.78703 -5.93403,-13.27015c-3.57163,1.35599 -6.93836,3.55424 -9.6729,6.81876c-4.52517,5.40403 -8.73337,15.58588 -3.0629,33.41182c5.6696,17.82793 14.63063,22.59678 21.14957,23.45398c3.35798,0.44304 6.63715,-0.03584 9.7053,-1.1499c6.08114,-2.20821 11.33132,-6.91732 14.72519,-11.92412c0.44131,-0.65012 0.85372,-1.30422 1.22936,-1.95931z" id="svg_5"/>
   <path stroke="null" d="m118.24201,80.5421c-0.88525,-1.74825 -2.35015,-3.11917 -4.19331,-3.70158c-3.72924,-1.17678 -7.58894,1.30521 -8.62392,5.54441l-0.05954,0.24591l-1.03322,4.22626c-0.007,0.02589 -0.00963,0.05277 -0.01576,0.07965c-0.09544,0.40919 -0.15761,0.81837 -0.19526,1.22656c-0.03152,0.34547 -0.05079,0.68894 -0.04291,1.02943l-13.07904,6.00537c4.13815,2.02502 8.55212,3.40789 13.25066,3.43278c0.01401,0 0.02714,0 0.04115,0c3.2424,0.001 6.61701,-0.73375 9.7806,-2.43918c0.06042,-0.03285 0.11646,-0.07268 0.176,-0.10653c0.06655,-0.03883 0.13047,-0.07965 0.19701,-0.12047c0.29421,-0.18319 0.57615,-0.39027 0.84497,-0.62025c0.27056,-0.22998 0.52362,-0.47987 0.75741,-0.74868c0.04378,-0.04978 0.08844,-0.09956 0.13047,-0.15033c0.22328,-0.2698 0.4308,-0.55753 0.62169,-0.86317c0.03678,-0.05974 0.07005,-0.12146 0.10507,-0.1812c0.18563,-0.3166 0.35813,-0.64613 0.50435,-0.99758c0.00613,-0.01493 0.01226,-0.02887 0.01751,-0.04381c0.14798,-0.3614 0.26969,-0.7447 0.37038,-1.13895c0.00963,-0.03485 0.02452,-0.06571 0.03327,-0.10055l1.09277,-4.47416c0.35375,-1.44957 0.3231,-2.91408 -0.00876,-4.26508c-0.0289,-0.11748 -0.05341,-0.23695 -0.08756,-0.35244c-0.14798,-0.5187 -0.34499,-1.01649 -0.58403,-1.48641z" id="svg_6"/>
   <path stroke="null" d="m7.29826,85.30797c0.84322,4.24617 2.74768,8.50627 5.6302,12.59215c2.68726,3.82105 6.22736,7.63414 10.81558,11.56371c0.007,0.00597 0.01313,0.01195 0.02014,0.01792c2.28973,1.95931 4.83514,3.9465 7.67563,5.97948c1.15756,0.82733 2.44734,1.22258 3.72048,1.22258c1.46315,0.001 2.90529,-0.52169 4.10575,-1.50632c0.58666,-0.48087 1.10502,-1.0832 1.55071,-1.77811c0.09369,-0.14735 0.19526,-0.28573 0.28107,-0.44204c2.05769,-3.72448 1.07175,-8.64167 -2.2048,-10.98229c-0.59454,-0.42412 -1.16544,-0.84226 -1.72496,-1.25742c-0.52187,-0.38728 -1.02622,-0.76959 -1.51744,-1.1499c-0.81432,-0.62921 -1.59011,-1.24747 -2.32475,-1.85577c-4.49277,-3.71253 -7.54429,-7.01389 -9.44087,-9.73682c-0.04991,-0.07168 -0.09282,-0.13938 -0.14097,-0.21007c-0.70049,-1.02844 -1.23987,-1.95135 -1.65141,-2.77868c-0.41854,-0.84226 -0.7075,-1.58696 -0.90188,-2.24305c-0.29245,-0.98762 -0.37827,-1.77911 -0.38352,-2.41031c0.00088,-0.06471 0.01226,-0.12445 0.01401,-0.18916c0.04203,-1.23851 0.37651,-2.32569 1.18646,-3.67669c0.43781,-0.73773 1.04373,-1.49139 1.73547,-2.22214l0,9.15042c0.30384,0.09358 0.60768,0.18717 0.90538,0.29071c1.49905,0.52467 3.0734,0.75266 4.68103,0.67998c7.4576,-0.34248 13.46956,-6.88944 13.72174,-7.16821c2.25821,-2.27989 4.96998,-3.52437 7.89891,-3.65778c1.28628,-0.05974 2.59182,0.10055 3.88335,0.4729c4.40959,1.27833 8.03551,4.86044 9.46363,9.34953c0.28282,0.89204 0.47546,1.80599 0.57615,2.73587l6.23174,-2.27093l0,-3.61895c0.59892,0.59237 1.2066,1.18674 1.83616,1.78409c0.29421,0.27876 0.59892,0.55852 0.90013,0.83729l16.52283,-6.02129c-4.9192,-3.5184 -9.76922,-8.13691 -13.49934,-12.1541c-2.29061,-2.45611 -4.18193,-4.67925 -5.48397,-6.26621c-0.43343,-0.52866 -0.79506,-0.97866 -1.09189,-1.353c-1.1453,-2.39936 -3.37987,-4.02913 -5.94979,-4.02913l-33.82933,0c-0.40628,0 -0.80294,0.04779 -1.18908,0.12544c-0.69786,0.02887 -1.40448,0.17622 -2.09709,0.45697c-0.3555,0.16029 -4.76684,1.9155 -9.60811,5.82516c-2.41582,1.97026 -4.97436,4.50203 -7.09159,7.92883c-2.10498,3.39196 -3.73975,7.88602 -3.72661,12.99039c0,0.1344 0.00613,0.2708 0.00876,0.4052c0.01313,0.86018 0.07092,1.72336 0.17425,2.58852c0.07968,0.65908 0.18651,1.32015 0.31785,1.98121z" id="svg_7"/>
  </g>
 </g>

</svg>