<svg width="50.32" height="82.5" xmlns="http://www.w3.org/2000/svg" xml:space="preserve" enable-background="new 0 0 66 66" version="1.1">

 <g>
  <title>Layer 1</title>
  <g stroke="null" id="svg_1">
   <path stroke="null" id="svg_2" d="m34.40752,55.60099l0.12657,-2.58206l-18.3528,0l0.25314,2.58206c0,0.38731 0.37971,0.77462 0.75943,0.77462l0.37971,0c-0.12657,0.77462 -0.25314,1.54924 -0.25314,2.32385l6.96141,4.2604c0.25314,-1.93654 0.50628,-4.00219 0.75943,-6.06784c0,-0.1291 0,-0.38731 0,-0.51641l0.50628,0c0,2.45296 0,4.77681 0.12657,6.97156l7.46769,-4.5186c0,-0.77462 0,-1.54924 0,-2.45296c0,0 0,0 0,0l0.50628,0c0.37971,0 0.75943,-0.25821 0.75943,-0.77462z"/>
   <path stroke="null" id="svg_3" d="m15.80158,69.415l4.55656,-2.84026l-3.9237,-2.32385c-0.25314,1.67834 -0.37971,3.48578 -0.63286,5.16412z"/>
   <path stroke="null" id="svg_4" d="m15.16872,79.48503c0,2.06565 1.64542,3.87309 3.79713,3.87309c0,0 0,0 0,0c2.02514,0 3.79713,-1.67834 3.79713,-3.87309c0,-2.96937 0.25314,-5.80963 0.50628,-8.6499l-7.97397,4.90591c-0.12657,1.16193 -0.12657,2.45296 -0.12657,3.74399z"/>
   <path stroke="null" id="svg_5" d="m33.64809,68.76949c-0.25314,-1.29103 -0.37971,-2.58206 -0.37971,-4.00219l-3.0377,1.80744l3.41742,2.19475z"/>
   <path stroke="null" id="svg_6" d="m35.54666,75.74105l-9.23968,-5.55143c0.63286,3.61488 1.51885,7.10066 3.16428,10.84465c0.75943,1.93654 3.0377,2.84026 4.93627,2.06565c1.89857,-0.77462 2.78456,-3.09847 2.02514,-5.03501c-0.37971,-0.77462 -0.63286,-1.54924 -0.886,-2.32385z"/>
   <circle stroke="null" id="svg_7" r="7.21658" cy="8.22021" cx="25.42098"/>
   <path stroke="null" id="svg_8" d="m45.03948,53.01893c-4.05027,2.45296 10.37882,-6.32604 -19.74508,12.00657c-30.1239,-18.33262 -15.6948,-9.55362 -19.74508,-12.00657l-4.93627,0c4.55656,2.71116 -11.64453,-7.10066 22.2765,13.55581c-33.54132,20.39826 -17.4668,10.58644 -22.02336,13.42671l4.93627,0c4.05027,-2.45296 -10.25225,6.19694 19.61851,-11.87747c29.74419,18.07441 15.56823,9.42451 19.61851,11.87747l4.93627,0c-4.55656,-2.71116 11.51796,6.97156 -22.02336,-13.42671c33.92103,-20.65647 17.59337,-10.71554 22.2765,-13.55581l-5.18941,0z"/>
   <path stroke="null" id="svg_9" d="m-11.28462,44.23993l0,7.48797l73.28461,0l0,-7.48797l-73.28461,0zm3.41742,5.68053c-0.75943,0 -1.26571,-0.64551 -1.26571,-1.29103c0,-0.77462 0.63286,-1.29103 1.26571,-1.29103c0.75943,0 1.26571,0.64551 1.26571,1.29103c0,0.64551 -0.50628,1.29103 -1.26571,1.29103zm3.16428,0c-0.75943,0 -1.26571,-0.64551 -1.26571,-1.29103c0,-0.77462 0.63286,-1.29103 1.26571,-1.29103c0.75943,0 1.26571,0.64551 1.26571,1.29103c0.12657,0.64551 -0.50628,1.29103 -1.26571,1.29103zm10.75854,0c-0.75943,0 -1.26571,-0.64551 -1.26571,-1.29103c0,-0.77462 0.63286,-1.29103 1.26571,-1.29103c0.75943,0 1.26571,0.64551 1.26571,1.29103c0,0.64551 -0.63286,1.29103 -1.26571,1.29103z"/>
   <path stroke="null" id="svg_10" d="m13.77644,42.17428c1.01257,1.03282 2.53142,1.03282 3.54399,0c1.01257,-1.03282 1.01257,-2.58206 0,-3.61488l-5.18941,-5.16412l2.27828,-4.00219l0.37971,4.90591l3.41742,3.48578c1.39228,1.42013 1.51885,3.74399 0.12657,5.29322l14.17595,0c-1.26571,-1.54924 -1.26571,-3.87309 0.12657,-5.29322l3.41742,-3.48578l0.37971,-4.90591l2.27828,4.00219l-5.18941,5.16412c-1.01257,1.03282 -1.01257,2.58206 0,3.61488c1.01257,1.03282 2.53142,1.03282 3.54399,0l6.58169,-6.58425c0.75943,-0.77462 1.01257,-2.06565 0.37971,-3.09847l-6.20198,-10.84465c-3.16428,-5.55143 -20.37793,-7.61707 -24.80792,0l-6.20198,10.84465c-0.63286,1.03282 -0.37971,2.32385 0.37971,3.09847l6.58169,6.58425z"/>
  </g>
  <text id="svg_12" font-family="'Helvetica Neue', Helvetica, Arial-Unicode, Arial, Sans-serif" font-weight="bold" font-size="5px" fill="#000000" y="86" x="0">from the Noun Project</text>
 </g>
</svg>