<svg width="176.4" height="289.19" xmlns="http://www.w3.org/2000/svg" xml:space="preserve" version="1.1">

 <g>
  <title>Layer 1</title>
  <g stroke="null" id="svg_1">
   <path stroke="null" id="svg_2" d="m117.37055,53.81445c-3.71712,-12.51582 -6.59705,-22.17868 -7.28957,-23.71556c-5.14637,-11.42673 -17.44433,-11.36099 -23.03541,-9.51649c-5.58974,1.8445 -7.48514,7.66206 -11.84387,10.82885c-0.6885,0.49989 -1.61142,0.88814 -2.67498,1.18584c0.23039,-2.04669 0.22772,-4.14796 -0.0509,-6.27776c-2.00389,-15.29684 -17.02105,-26.19515 -33.53978,-24.33825c-16.52141,1.85194 -28.29028,15.75951 -26.28772,31.05759c2.00523,15.29808 17.02105,26.19639 33.54112,24.34073c12.15866,-1.3657 21.73208,-9.25848 25.14781,-19.42619c6.78859,-2.59744 12.28591,-7.18698 15.59314,-9.28329c4.69897,-2.97824 9.41268,-0.5892 11.46881,2.69171c0.64564,1.03079 4.08548,12.31115 8.62103,27.54101c0.23307,-0.24684 0.46883,-0.4788 0.70056,-0.73309c2.42316,-2.64953 5.91524,-4.20874 9.64977,-4.35511z"/>
   <path stroke="null" id="svg_3" d="m57.47741,74.86063c-0.36033,-0.15257 -0.60947,-0.26917 -0.73807,-0.32995l-0.01607,-0.00496c-5.13833,-2.71776 -11.68447,-1.06428 -14.61932,3.69397c-2.15258,3.48806 -1.75877,7.67199 0.62421,10.73086c0.868,1.11266 1.99318,2.0839 3.36617,2.80955c0.9631,0.47136 11.37237,5.96269 27.18251,6.01355c0.02143,0 0.0442,0 0.06564,0c0.47552,0 0.97114,-0.02233 1.45604,-0.03225c3.19471,-0.07443 6.58231,-0.38825 10.10788,-1.03327c4.48733,-0.82116 9.18228,-2.15585 13.96297,-4.2013c5.12627,-2.18562 10.31148,-5.1589 15.4257,-9.04389c3.18132,-2.41633 6.3345,-5.19239 9.42875,-8.34553c0.80102,-0.81495 1.59803,-1.64604 2.39101,-2.51309c3.82428,-4.18021 3.26571,-10.44184 -1.25109,-13.98324c-1.96907,-1.5468 -4.36812,-2.31834 -6.76314,-2.35183c-3.09425,-0.04093 -6.18314,1.15111 -8.33572,3.50666c-0.63358,0.69215 -1.26449,1.34709 -1.89272,1.98715c-6.33986,6.45018 -12.41852,10.34013 -17.97611,12.72297c-6.11616,2.60364 -11.69653,3.43348 -16.61786,3.43844c-0.79968,0.00124 -1.57258,-0.02853 -2.33341,-0.0707c-4.07744,-0.22576 -7.57756,-1.00598 -10.10386,-1.78c-1.49756,-0.45895 -2.64819,-0.90799 -3.36349,-1.21313z"/>
   <path stroke="null" id="svg_4" d="m165.15459,85.51954l-22.94834,-14.29334c-1.41585,-0.89186 -3.34206,-0.55075 -4.30248,0.7579c-0.88943,1.21065 -0.63358,2.81699 0.52508,3.75847c1.81502,7.16342 -0.01206,22.89316 0.06028,27.1143c0.08171,4.54985 4.22747,18.21306 1.22698,18.91514c-0.72333,0.16994 -2.69374,-4.79546 -5.29639,-12.48233c2.38431,-2.83932 3.02192,-6.78013 1.27655,-10.26942c-1.28056,-2.55898 -3.59388,-4.36751 -6.26753,-5.211c-1.57525,-5.0547 -3.22284,-10.45052 -4.86239,-15.88976c-3.0554,3.00925 -6.226,5.72701 -9.50243,8.14459c0.93899,3.17423 1.88334,6.36459 2.82233,9.53758c-6.97612,2.55278 -13.09363,3.50542 -18.53067,3.50914c-3.29116,0.00124 -6.37871,-0.36344 -9.27605,-0.97993c-4.86373,1.25158 -9.83462,1.93381 -14.86981,2.07274c-0.62287,0.01737 -1.2444,0.04714 -1.8686,0.04714l-0.00536,0l-0.06965,0c-12.43593,-0.04093 -21.73743,-3.28339 -26.43775,-5.36605c-0.73807,-0.32623 -1.37299,-0.62765 -1.87798,-0.87946l-0.03617,-0.01861l-0.14868,-0.07691c-3.10764,-1.64355 -5.33657,-4.30797 -6.28092,-7.50453c-0.94033,-3.1978 -0.48088,-6.54445 1.29396,-9.41974c2.37762,-3.85646 6.83682,-6.25171 11.64027,-6.25171c2.316,0 4.60923,0.56439 6.63321,1.63363c0.01741,0.00496 0.22772,0.10295 0.53044,0.23072c0.52642,0.227 1.59535,0.65618 3.09827,1.11886c1.93692,0.59044 4.7405,1.26771 8.09729,1.56665c-4.06003,-7.9362 -11.509,-13.72151 -19.71345,-12.91896c-11.71796,1.14739 -25.1679,11.8063 -24.78882,31.00922c0.6885,26.40106 4.87043,42.32679 18.31367,67.11904c5.77191,8.88884 12.40914,12.52202 19.04905,13.42009c1.3462,6.537 2.52228,15.59702 2.52764,27.44301c-0.00268,16.89326 -2.40039,39.40809 -10.21772,68.08532c-2.2651,8.30088 3.16658,16.73448 12.13455,18.83079c1.37567,0.32251 2.75536,0.47632 4.11227,0.47632c7.48648,0 14.30454,-4.68506 16.22271,-11.71327c8.43618,-30.9534 11.23574,-56.0545 11.23574,-75.67792c0.01072,-19.35053 -2.7299,-33.34617 -5.35935,-42.31315c-0.27862,-2.74008 -1.40916,-6.20581 -3.52021,-10.72342c-5.58706,-9.87001 -9.10057,-21.45552 -11.6108,-32.76193c6.24878,2.0653 13.33608,3.40371 21.19226,3.40495c0.01206,0 0.02545,0 0.03751,0c7.55077,0 15.69762,-1.29004 24.21149,-4.1554c5.34059,17.81365 9.77702,32.15536 11.11519,34.87684c3.91001,7.95232 16.05527,8.87395 22.25046,2.85916c6.19252,-6.01603 1.03276,-22.81129 -3.37956,-41.12359c-3.3742,-14.01052 4.24622,-19.42247 8.01692,-21.19503l0.06296,0.03845c1.41585,0.89186 3.34206,0.55075 4.30248,-0.7579c0.9631,-1.31112 0.59742,-3.09484 -0.81844,-3.9867z"/>
  </g>
 </g>
</svg>