<svg width="52.155" height="82.5" xmlns="http://www.w3.org/2000/svg" xml:space="preserve" enable-background="new 0 0 66 66" version="1.1">

 <g>
  <title>Layer 1</title>
  <g stroke="null" id="svg_1">
   <path stroke="null" id="svg_2" d="m13.4351,20.45262l0.1335,-5.7407c-0.66752,0 -1.33505,0.39141 -1.73556,0.91329c-0.93453,1.04376 -0.93453,2.73988 0.26701,3.65317c0.53402,0.39141 0.93453,0.78282 1.33505,1.17423z"/>
   <circle stroke="null" id="svg_3" r="7.30634" cy="7.14464" cx="36.93193"/>
   <path stroke="null" id="svg_4" d="m47.7458,18.88698c-14.55201,-9.13293 -23.76383,2.08753 -24.96537,2.60941c-0.66752,-0.52188 -1.46855,-1.3047 -2.53659,-2.08753l0.26701,7.0454c1.46855,1.04376 2.53659,1.69612 4.00514,0.39141l0.66752,-0.52188l0.26701,4.04458c1.33505,0.65235 2.26958,1.56565 3.07061,2.60941l10.01285,-8.87199c0.93453,-0.78282 2.00257,-1.04376 3.07061,-1.04376l-20.42621,18.13539c-1.06804,0.91329 -1.20154,2.60941 -0.1335,3.65317c0.93453,1.04376 2.67009,1.17423 3.73813,0.13047l20.55972,-18.26586c0,1.04376 -0.40051,2.08753 -1.33505,2.87035l-13.48397,12.13375c-0.1335,1.56565 -0.53402,3.00082 -0.80103,3.78364c0.40051,0.52188 0.66752,1.17423 0.66752,1.69612c0,0.78282 -0.1335,1.17423 -1.33505,2.34847c-0.80103,-0.26094 -1.33505,-0.65235 -1.86907,-0.26094c0,0 0,0 0,0l0.40051,5.34929c0,0.39141 0.26701,0.78282 0.53402,0.91329c0,0.13047 0,0.13047 0,0.26094l0,2.08753c0.1335,0.13047 0.26701,0.13047 0.53402,0.13047c0.93453,0 1.60206,-0.39141 2.26958,-0.78282c0.1335,0.13047 2.00257,3.00082 1.86907,2.73988l-0.66752,0.78282c-1.60206,1.82659 7.07575,13.04704 -4.00514,19.17915c0.53402,1.56565 2.00257,2.73988 3.73813,2.73988c2.13607,0 4.00514,-1.69612 4.00514,-3.91411l0,-22.96279c0,0 0,0 0,0l2.13607,0c0,0 0,0 0,0l0,22.96279c0,2.218 1.73556,3.91411 4.00514,3.91411s4.00514,-1.69612 4.00514,-3.91411l0,-22.96279c0,-0.13047 0,-0.26094 0,-0.26094c0.26701,-0.26094 0.53402,-0.52188 0.53402,-0.91329l2.53659,-33.13949c0.1335,-1.04376 -0.40051,-2.08753 -1.33505,-2.60941z"/>
   <path stroke="null" id="svg_5" d="m30.3902,62.4641c0,0 -0.26701,-1.56565 0.66752,-2.47894l-0.66752,-1.04376c0,0 -2.8036,1.3047 -4.00514,-0.78282c0,0 -2.40308,-7.69775 -0.26701,-9.78528c0,0 0.80103,-0.91329 2.53659,-0.26094c0,0 1.06804,-0.91329 -0.53402,-2.218c0,0 0.40051,-1.04376 0.80103,-2.60941l-3.20411,2.87035c-1.60206,1.43517 -4.13864,1.3047 -5.6072,-0.26094c-1.46855,-1.56565 -1.33505,-4.04458 0.26701,-5.47976l7.34276,-6.52352c-1.46855,-1.95706 -4.00514,-3.5227 -8.27729,-3.78364l-0.93453,-19.8315l1.46855,0l0,0.26094l1.06804,0c0.1335,0 0.26701,-0.13047 0.26701,-0.26094l0,-1.3047c0,-0.13047 -0.1335,-0.26094 -0.26701,-0.26094l-1.06804,0l0,0.26094l-1.46855,0l0,-2.47894l1.20154,0l0,0.26094l1.06804,0c0.1335,0 0.26701,-0.13047 0.26701,-0.26094l0,-1.3047c0,-0.13047 -0.1335,-0.26094 -0.26701,-0.26094l-1.06804,0l0,0.26094l-1.20154,0l0,-1.56565l1.33505,-0.26094l0,-1.56565l-1.33505,-0.13047l-0.66752,-2.47894l-1.73556,0l-0.93453,2.60941l-1.06804,0l0.26701,1.69612l1.06804,0.26094l0,1.43517l-1.20154,0l0,-0.13047l-1.06804,0c-0.1335,0 -0.26701,0.13047 -0.26701,0.26094l0,1.3047c0,0.13047 0.1335,0.26094 0.26701,0.26094l1.06804,0l0,-0.39141l1.20154,0l0,2.47894l-1.46855,0l0,-0.26094l-1.06804,0c-0.1335,0 -0.1335,0.13047 -0.1335,0.26094l0,1.3047c0,0.13047 0.1335,0.26094 0.1335,0.26094l1.06804,0l0,-0.26094l1.46855,0l-0.93453,19.04868c0,0 -8.41079,1.3047 -9.61234,6.39305c0,0 -1.06804,4.69694 0.53402,8.48058c0,0 0.1335,1.69612 -0.66752,2.34847l0.80103,1.43517c0,0 2.9371,-0.91329 3.20411,2.218c0,0 0.26701,10.69857 -4.80617,9.2634c0,0 -0.80103,-0.26094 -0.93453,0.78282c0,0 0.66752,1.69612 0,3.26176c0,0.13047 -8.94481,15.0041 12.94995,17.35257c0,0 -0.26701,1.43517 0.93453,1.43517c0,0 1.46855,0.26094 1.20154,-1.43517c0.26701,0 21.09374,0.26094 12.28243,-18.39633z"/>
  </g>
 </g>
</svg>