<svg width="32" height="64" xmlns="http://www.w3.org/2000/svg" version="1.1" enable-background="new 0 0 66 66" xml:space="preserve">
 <g>
  <title>Layer 1</title>
  <g id="svg_1">
   <path d="m3.08507,12.70448c-0.5,0.4 -0.7,0.9 -0.8,1.5l3,-1.6c-0.6,-0.4 -1.5,-0.4 -2.2,0.1z" id="svg_2"/>
   <path d="m18.28507,5.70448c0.7,-0.4 1.6,-0.1 2,0.6c0.4,0.7 0.1,1.6 -0.6,2l-3.7,2c0.9,0.7 2.1,1.1 3.3,1.1c3.1,0 5.6,-2.5 5.6,-5.6c0,-3.1 -2.5,-5.6 -5.6,-5.6c-3.1,0 -5.6,2.5 -5.6,5.6c0,0.8 0.2,1.5 0.5,2.2l4.1,-2.3z" id="svg_3"/>
   <path d="m9.68507,11.40448l-9.4,5c-0.2,0.1 -0.3,0.4 -0.2,0.7c0.1,0.2 0.4,0.3 0.7,0.2l9.1,-4.9c-0.2,-0.3 -0.2,-0.7 -0.2,-1z" id="svg_4"/>
   <path d="m19.38507,6.70448c-0.1,-0.2 -0.4,-0.3 -0.7,-0.2l-4.6,2.6c0.3,0.2 0.5,0.4 0.8,0.7l4.4,-2.3c0.2,-0.2 0.3,-0.5 0.1,-0.8z" id="svg_5"/>
   <path d="m27.38507,15.00448c-3.6,-2.4 -7.3,-3.4 -10.8,-2.7l2.7,3.7c2.3,-0.7 3.5,-2 5.3,-1.1l-5.7,2.2l-4.8,-6.7c-0.6,-0.9 -1.8,-1.1 -2.7,-0.4c-0.9,0.6 -1.1,1.8 -0.4,2.7l5.7,8c0.5,0.7 1.4,1 2.3,0.7l7.1,-2.8c-0.3,0.7 -0.8,1.4 -1.6,1.7l-5.1,2c-1.1,0.5 -2.6,0.1 -3.4,-1l-4.7,-6.5c-0.2,0.1 0.1,-0.1 -2.7,1.8l-1.2,-1.6l-3.5,1.8l2.8,3.6c0.7,0.8 1.8,1 2.7,0.4l1.3,-1l1.7,21.7c0,0.2 0.1,0.4 0.3,0.5l-0.9,9.5c0,0.2 0,1.6 -0.2,9.7c0,1.6 1.3,2.9 2.9,2.9c0,0 0,0 0,0c1.6,0 2.9,-1.3 2.9,-2.8l0.1,-9.4l0.9,-9.9c0,0 0,0 0,0l1.6,0l-0.8,9.5c0,0.2 0,1.6 -0.2,9.7c0,1.6 1.3,2.9 2.9,2.9c0,0 0,0 0,0c1.6,0 2.9,-1.3 2.9,-2.8l0.1,-9.4l0.9,-9.9c0,0 0,-0.1 0,-0.1c0.1,-0.1 0.2,-0.3 0.3,-0.4l1.9,-25.3c0,-0.5 -0.2,-1 -0.6,-1.2z" id="svg_6"/>
   <path d="m1.68507,20.40448c0.9,2.4 4.2,3.5 6.2,2.7c-3.6,-0.5 -4.6,-1.5 -6.2,-2.7z" id="svg_7"/>
   <path d="m3.68507,20.10448c1.2,2.3 4.8,3 6.5,1.9c-3.2,0 -4.4,-0.6 -6.5,-1.9z" id="svg_8"/>
   <path d="m28.68507,12.30448c2.5,2.7 2.7,4.1 3.1,6.1c0.9,-2.5 -1.1,-5.4 -3.1,-6.1z" id="svg_9"/>
   <path d="m26.28507,11.70448c2.5,2.1 3.1,3.3 3.8,5.6c0.5,-2.6 -1.9,-5.4 -3.8,-5.6z" id="svg_10"/>
  </g>
 </g>

</svg>