<svg xmlns="http://www.w3.org/2000/svg" xmlns:xlink="http://www.w3.org/1999/xlink" version="1.1" x="0px" y="0px" viewBox="0 0 66 82.5" enable-background="new 0 0 66 66" xml:space="preserve"><g><path d="M28.4,31.3c-0.1,0-0.2,0-0.2,0c-1.2,0.1-1.6,1.6-1.6,1.6c-0.8,1.8-1.3,3.4-3.1,4.6c0,1.1,0.1,2.1,0.4,3.1   c0.1,0.5,0.3,1.4,0.8,1.7c0.5,0.3,2.7,0.5,3.2,0.6c0.3-0.2,1.1-0.4,1.6-1.1l0.3,1.3h0c2.6,0.1,4.2-0.1,6.2,0.2l-0.8-3.7   c0-0.1-0.1-0.3-0.1-0.4c0-0.1,0-0.1,0-0.2l-0.5-15.6l-5.6,3.7c0,0.1,0,0.1,0.1,0.1c0.1,0.1,0.4,0.2,0.8,0.1c1.3,0,1.8,0.9,1.7,1.9   C31.2,30.5,30.1,31.2,28.4,31.3z"/><path d="M36.7,52.7c0.4-0.4,0.7-0.8,0.9-1.2c0,0,0-0.1,0-0.1v0l-1-4.6h0c-1.5-0.9-3.8-0.5-6.3-0.6l2.4,11.1   C33.2,56.7,33.3,56.6,36.7,52.7z"/><path d="M38.5,55.2c-2.8,3.3-3.7,4.4-4.9,5.2c0,0-0.1,0-0.1,0.1l0.5,2.1c0.3,1.5,1.8,2.6,3.6,2.3   c1.6-0.3,2.6-1.9,2.3-3.6L38.5,55.2z"/><path d="M24.8,11.7c2.9-0.3,5.1-3,4.8-5.9c-0.3-2.9-3-5.1-5.9-4.8s-5.1,3-4.8,5.9C19.3,9.9,21.9,12,24.8,11.7z"/><path d="M47,15.2l-8.2,5.4c2.2,0.2,5.1-0.2,8.4-1.7c1-0.5,1.4-1.6,1-2.6C48,15.7,47.5,15.3,47,15.2z"/><path d="M25,50.6c0-0.3,0-0.7-0.1-1.1l-1.1-4.2c-0.3-0.1-0.6-0.3-0.9-0.5c-1.3-0.9-1.7-2.4-2-3.6   c-0.1-0.5-0.2-0.9-0.2-1.4l-1.8,0.9c-1.3,0.6-2,2.1-1.6,3.5l1.7,6.5H25z"/><path d="M17.1,64.9H28V51.6H17.1V64.9z M25.9,56.6c0.3,0,0.6,0.3,0.6,0.6c0,0.3-0.3,0.6-0.6,0.6   c-0.3,0-0.6-0.3-0.6-0.6C25.3,56.9,25.6,56.6,25.9,56.6z M22.6,52.7c1.1,0,1.9,0.9,1.9,1.9c0,1.1-0.9,1.9-1.9,1.9   c-1.1,0-1.9-0.9-1.9-1.9C20.6,53.6,21.5,52.7,22.6,52.7z M22.6,58c1.6,0,2.9,1.3,2.9,2.9c0,1.6-1.3,2.9-2.9,2.9   c-1.6,0-2.9-1.3-2.9-2.9C19.7,59.2,21,58,22.6,58z M19.2,56.6c0.3,0,0.6,0.3,0.6,0.6c0,0.3-0.3,0.6-0.6,0.6c-0.3,0-0.6-0.3-0.6-0.6   C18.6,56.9,18.9,56.6,19.2,56.6z"/><path d="M52.5,10.3c-0.5-0.4-0.9-0.9-1-1.5c0-0.1-0.1-0.1-0.2-0.1c-0.8,0.5-2.4,1.6-3.4,1.5c0,0-0.1,0-0.1,0.2   c0,0,0,0.8-0.5,1.3L26.9,24.5c-0.1,0.1-0.3,0.1-0.4,0c-0.2-0.2-0.6-0.8-0.1-2.2c0,0,0.3-0.5,1-1.1c0,0,0.5-0.4-0.2-0.9   c0,0-0.9-0.3-1.8,0.4c0,0-1.1,0.9-1.4,1.7c-0.5,0.4-0.3,2.3-5.3,2.4c0.1,0.5,0.4,1.3,2.3,1.8c1.6,0.5,2.5,2.1,2,3.7   c-0.4,1.5-2,2.5-3.7,2c-2.6-0.8-4.6-2.3-5.6-4.2c-0.4,1.2-0.4,2.9,0.9,5.1c0.1,0.1,2.5,5.1,6.8,4.1c0.1,0.9,0.3,2.8,0.5,3.7   c0.6,2.7,1.6,3.3,3.7,3.7c5.3,0.8,8.3,0.2,10.5,0.7c2.3,0.6,2.9,2,2.9,3.8c0,0.9,0,1.9-0.4,2.7c-0.2,0.5-0.6,1-1,1.5   c-3.6,4.2-4.1,4.8-5,5.5c-0.8,0.5-2.6,0.6-3.4,0.4v1c1.1,0.2,2.2,0.5,4-0.6c1.1-0.8,1.8-1.6,5.2-5.7c0.4-0.5,0.9-1,1.2-1.7   c0.5-1,0.5-2.2,0.5-3.1c0-2.4-1.1-4-3.7-4.7c-2.6-0.7-4.9,0.1-10.6-0.8c-1.3-0.2-2.8-0.8-2.8-2.9c-0.2-0.9-0.4-2.9-0.5-3.8   c2.3-1.1,2.7-3.4,3.2-4.3c0,0,0.5-2.2,2.5-2.3c0,0,2.1,0,2.4-1.2c0,0,0.1-0.7-0.5-0.8c0,0-2.1,0.3-2.1-1.5c0-0.2,0.1-0.4,0.2-0.5   l19.9-13.1c0,0,0.9-0.6,1.7-0.1c0,0,0.1,0,0.2-0.2l0.2-0.3c0,0,0.8-1.2,2.3-2.2C52.5,10.4,52.5,10.3,52.5,10.3z"/><path d="M19.6,31.4c1.1,0.3,2.2-0.3,2.5-1.3c0.3-1.1-0.3-2.2-1.3-2.5c-2.9-0.9-3.8-2.7-2.2-6l0.4,2.2   c0.2,0,0.4,0,0.6,0c3-0.2,2.5-0.8,3.6-1.8c0.4-1,1.9-2.6,3.4-2.7c2.1-0.1,2.7,1.9,1.5,2.8c-0.4,0.3-0.6,0.6-0.7,0.7   c0,0.1-0.1,0.2-0.1,0.3c1.1-0.7-4,2.5,10.7-6.7c-2.1-0.5-3.2-1.7-3.3-1.8c-0.7-0.9-9.7-6.2-17.1,1.5l0,0c-2.4,2.5-4.5,6.8-3.5,10.3   C14.5,28,15.9,30.3,19.6,31.4z"/></g><text x="0" y="81" fill="#000000" font-size="5px" font-weight="bold" font-family="'Helvetica Neue', Helvetica, Arial-Unicode, Arial, Sans-serif">Created by ProSymbols</text><text x="0" y="86" fill="#000000" font-size="5px" font-weight="bold" font-family="'Helvetica Neue', Helvetica, Arial-Unicode, Arial, Sans-serif">from the Noun Project</text></svg>