<svg width="39" height="64" xmlns="http://www.w3.org/2000/svg" xml:space="preserve" enable-background="new 0 0 66 66" version="1.1">

 <g>
  <title>Layer 1</title>
  <g id="svg_1">
   <path id="svg_2" d="m15.24212,30.59825c-0.1,0 -0.2,0 -0.2,0c-1.2,0.1 -1.6,1.6 -1.6,1.6c-0.8,1.8 -1.3,3.4 -3.1,4.6c0,1.1 0.1,2.1 0.4,3.1c0.1,0.5 0.3,1.4 0.8,1.7c0.5,0.3 2.7,0.5 3.2,0.6c0.3,-0.2 1.1,-0.4 1.6,-1.1l0.3,1.3l0,0c2.6,0.1 4.2,-0.1 6.2,0.2l-0.8,-3.7c0,-0.1 -0.1,-0.3 -0.1,-0.4c0,-0.1 0,-0.1 0,-0.2l-0.5,-15.6l-5.6,3.7c0,0.1 0,0.1 0.1,0.1c0.1,0.1 0.4,0.2 0.8,0.1c1.3,0 1.8,0.9 1.7,1.9c-0.4,1.3 -1.5,2 -3.2,2.1z"/>
   <path id="svg_3" d="m23.54212,51.99825c0.4,-0.4 0.7,-0.8 0.9,-1.2c0,0 0,-0.1 0,-0.1l0,0l-1,-4.6l0,0c-1.5,-0.9 -3.8,-0.5 -6.3,-0.6l2.4,11.1c0.5,-0.6 0.6,-0.7 4,-4.6z"/>
   <path id="svg_4" d="m25.34212,54.49825c-2.8,3.3 -3.7,4.4 -4.9,5.2c0,0 -0.1,0 -0.1,0.1l0.5,2.1c0.3,1.5 1.8,2.6 3.6,2.3c1.6,-0.3 2.6,-1.9 2.3,-3.6l-1.4,-6.1z"/>
   <path id="svg_5" d="m11.64212,10.99825c2.9,-0.3 5.1,-3 4.8,-5.9c-0.3,-2.9 -3,-5.1 -5.9,-4.8s-5.1,3 -4.8,5.9c0.4,3 3,5.1 5.9,4.8z"/>
   <path id="svg_6" d="m33.84212,14.49825l-8.2,5.4c2.2,0.2 5.1,-0.2 8.4,-1.7c1,-0.5 1.4,-1.6 1,-2.6c-0.2,-0.6 -0.7,-1 -1.2,-1.1z"/>
   <path id="svg_7" d="m11.84212,49.89825c0,-0.3 0,-0.7 -0.1,-1.1l-1.1,-4.2c-0.3,-0.1 -0.6,-0.3 -0.9,-0.5c-1.3,-0.9 -1.7,-2.4 -2,-3.6c-0.1,-0.5 -0.2,-0.9 -0.2,-1.4l-1.8,0.9c-1.3,0.6 -2,2.1 -1.6,3.5l1.7,6.5l6,0l0,-0.1z"/>
   <path id="svg_8" d="m3.94212,64.19825l10.9,0l0,-13.3l-10.9,0l0,13.3zm8.8,-8.3c0.3,0 0.6,0.3 0.6,0.6c0,0.3 -0.3,0.6 -0.6,0.6c-0.3,0 -0.6,-0.3 -0.6,-0.6c0,-0.3 0.3,-0.6 0.6,-0.6zm-3.3,-3.9c1.1,0 1.9,0.9 1.9,1.9c0,1.1 -0.9,1.9 -1.9,1.9c-1.1,0 -1.9,-0.9 -1.9,-1.9c-0.1,-1 0.8,-1.9 1.9,-1.9zm0,5.3c1.6,0 2.9,1.3 2.9,2.9c0,1.6 -1.3,2.9 -2.9,2.9c-1.6,0 -2.9,-1.3 -2.9,-2.9c0,-1.7 1.3,-2.9 2.9,-2.9zm-3.4,-1.4c0.3,0 0.6,0.3 0.6,0.6c0,0.3 -0.3,0.6 -0.6,0.6c-0.3,0 -0.6,-0.3 -0.6,-0.6c0,-0.3 0.3,-0.6 0.6,-0.6z"/>
   <path id="svg_9" d="m39.34212,9.59825c-0.5,-0.4 -0.9,-0.9 -1,-1.5c0,-0.1 -0.1,-0.1 -0.2,-0.1c-0.8,0.5 -2.4,1.6 -3.4,1.5c0,0 -0.1,0 -0.1,0.2c0,0 0,0.8 -0.5,1.3l-20.4,12.8c-0.1,0.1 -0.3,0.1 -0.4,0c-0.2,-0.2 -0.6,-0.8 -0.1,-2.2c0,0 0.3,-0.5 1,-1.1c0,0 0.5,-0.4 -0.2,-0.9c0,0 -0.9,-0.3 -1.8,0.4c0,0 -1.1,0.9 -1.4,1.7c-0.5,0.4 -0.3,2.3 -5.3,2.4c0.1,0.5 0.4,1.3 2.3,1.8c1.6,0.5 2.5,2.1 2,3.7c-0.4,1.5 -2,2.5 -3.7,2c-2.6,-0.8 -4.6,-2.3 -5.6,-4.2c-0.4,1.2 -0.4,2.9 0.9,5.1c0.1,0.1 2.5,5.1 6.8,4.1c0.1,0.9 0.3,2.8 0.5,3.7c0.6,2.7 1.6,3.3 3.7,3.7c5.3,0.8 8.3,0.2 10.5,0.7c2.3,0.6 2.9,2 2.9,3.8c0,0.9 0,1.9 -0.4,2.7c-0.2,0.5 -0.6,1 -1,1.5c-3.6,4.2 -4.1,4.8 -5,5.5c-0.8,0.5 -2.6,0.6 -3.4,0.4l0,1c1.1,0.2 2.2,0.5 4,-0.6c1.1,-0.8 1.8,-1.6 5.2,-5.7c0.4,-0.5 0.9,-1 1.2,-1.7c0.5,-1 0.5,-2.2 0.5,-3.1c0,-2.4 -1.1,-4 -3.7,-4.7c-2.6,-0.7 -4.9,0.1 -10.6,-0.8c-1.3,-0.2 -2.8,-0.8 -2.8,-2.9c-0.2,-0.9 -0.4,-2.9 -0.5,-3.8c2.3,-1.1 2.7,-3.4 3.2,-4.3c0,0 0.5,-2.2 2.5,-2.3c0,0 2.1,0 2.4,-1.2c0,0 0.1,-0.7 -0.5,-0.8c0,0 -2.1,0.3 -2.1,-1.5c0,-0.2 0.1,-0.4 0.2,-0.5l19.9,-13.1c0,0 0.9,-0.6 1.7,-0.1c0,0 0.1,0 0.2,-0.2l0.2,-0.3c0,0 0.8,-1.2 2.3,-2.2c0,-0.1 0,-0.2 0,-0.2z"/>
   <path id="svg_10" d="m6.44212,30.69825c1.1,0.3 2.2,-0.3 2.5,-1.3c0.3,-1.1 -0.3,-2.2 -1.3,-2.5c-2.9,-0.9 -3.8,-2.7 -2.2,-6l0.4,2.2c0.2,0 0.4,0 0.6,0c3,-0.2 2.5,-0.8 3.6,-1.8c0.4,-1 1.9,-2.6 3.4,-2.7c2.1,-0.1 2.7,1.9 1.5,2.8c-0.4,0.3 -0.6,0.6 -0.7,0.7c0,0.1 -0.1,0.2 -0.1,0.3c1.1,-0.7 -4,2.5 10.7,-6.7c-2.1,-0.5 -3.2,-1.7 -3.3,-1.8c-0.7,-0.9 -9.7,-6.2 -17.1,1.5l0,0c-2.4,2.5 -4.5,6.8 -3.5,10.3c0.4,1.6 1.8,3.9 5.5,5z"/>
  </g>
 </g>
</svg>