<svg width="38.99999999999999" height="64" xmlns="http://www.w3.org/2000/svg" xml:space="preserve" version="1.1">

 <g>
  <title>Layer 1</title>
  <g stroke="null" id="svg_1">
   <path stroke="null" id="svg_2" d="m8.6982,36.3734c-0.01217,0.06493 -0.02536,0.1338 -0.03794,0.19989c0.25074,0.02034 0.51527,0.03304 0.79583,0.03351c0.01968,0 0.03956,0.00023 0.05924,0.00023c0.63496,0 1.34376,-0.06748 2.10185,-0.23362l-0.33432,-3.69845c-0.67005,0.16915 -1.28513,0.22923 -1.82697,0.23409c-0.26737,0.00023 -0.51567,-0.01502 -0.74227,-0.03928c0.28786,1.09209 0.2907,2.35749 -0.01542,3.50365z"/>
   <path stroke="null" id="svg_3" d="m15.71113,29.99255l0.38848,4.2988c0.3542,-0.26043 0.70981,-0.54697 1.06482,-0.86309l-0.37185,-4.24958c-0.2621,0.07395 -0.51202,0.2223 -0.72239,0.4483c-0.1205,0.12802 -0.23978,0.24679 -0.35907,0.36557z"/>
   <path stroke="null" id="svg_4" d="m18.36436,29.70416c-0.04301,-0.05222 -0.08885,-0.10006 -0.13571,-0.14512l0.22416,2.56107c0.49397,-0.70757 0.47145,-1.73842 -0.08845,-2.41595z"/>
   <path stroke="null" id="svg_5" d="m16.73822,45.87222l-0.25378,-2.80741c-0.58972,0.04645 -1.16788,0.07187 -1.71804,0.07187l-0.07425,0c-0.73639,0 -1.42348,-0.04552 -2.06676,-0.12548l0.20367,2.25281l2.22681,0c0.61711,-0.00023 1.19972,0.22369 1.68233,0.60821z"/>
   <path stroke="null" id="svg_6" d="m15.29466,62.17477l-1.49327,-6.15346l0.15762,1.74536l-0.47389,0c-0.42986,0 -0.77838,0.39723 -0.77838,0.88689c0,0.49012 0.34852,0.88712 0.77838,0.88712l0.18034,0l0,2.76327l-0.18034,0c-0.42986,0 -0.77838,0.39723 -0.77838,0.88689c0,0.49012 0.34852,0.88712 0.77838,0.88712l3.02852,0c-0.58059,-0.43628 -1.02486,-1.10249 -1.219,-1.90318z"/>
   <path stroke="null" id="svg_7" d="m33.22744,22.01332c-1.97587,1.35067 -4.13311,-6.55023 -8.32565,-13.10023c-3.05652,-4.77483 -9.15089,-5.45698 -12.0011,-5.5002l-0.14281,-1.58221c0.42195,-0.04136 0.73923,-0.4587 0.71042,-0.94235c-0.02941,-0.48874 -0.40065,-0.858 -0.83011,-0.82473l-4.154,0.45685c-0.42885,0.03328 -0.75323,0.45639 -0.72381,0.94489c0.02941,0.4892 0.40065,0.85824 0.8297,0.82473l0.35136,-0.03859l1.56528,17.31723c0.15986,0.0647 0.31788,0.13796 0.47348,0.22184c1.19972,0.64726 2.10611,1.78788 2.5522,3.21134c0.4465,1.42415 0.37955,2.96038 -0.18907,4.32723c-0.42276,1.01653 -1.09931,1.84518 -1.91745,2.41064l0.2552,2.82289l0.33574,3.71509l0.18075,2.00024c0.77595,0.15344 1.63121,0.23247 2.57046,0.23663c0.00507,0 0.01035,0 0.01603,0c0.41688,0 0.84634,-0.01964 1.28412,-0.05176l-0.35237,-3.89926l-0.38077,-4.21261l-1.73893,-19.24375c0.56842,-0.17424 1.25429,-0.3561 1.98013,-0.48689l1.61945,18.50475l0.34608,3.95542l0.55848,6.38293c0.19373,0.32513 0.3189,0.70803 0.34527,1.12352c0.02394,0.37481 -0.03408,0.73484 -0.15417,1.05974l1.05732,12.08301l1.6164,6.65976c0.20915,0.86286 0.11137,1.76615 -0.27609,2.54513c-0.23309,0.46817 -0.55523,0.85546 -0.93884,1.14316l7.75176,0c0.43027,0 0.77879,-0.397 0.77879,-0.88712c0,-0.48966 -0.34852,-0.88689 -0.77879,-0.88689l-0.17953,0l0,-2.76327l0.17953,0c0.43027,0 0.77879,-0.397 0.77879,-0.88712c0,-0.48966 -0.34852,-0.88689 -0.77879,-0.88689l-0.45137,0c5.79657,-26.61755 18.52636,-28.74997 14.86247,-35.61701c-2.76582,-5.18315 -6.58916,-1.56881 -8.68553,-0.13611zm-13.06937,34.25132l-2.07589,-23.72164l-0.28725,-3.28158l-1.63933,-18.73214c0.94554,-0.12756 1.92191,-0.14512 2.77251,0.06632l3.57179,40.81703c-0.77615,1.55425 -1.5592,3.17159 -2.34184,4.85201zm2.8427,-5.84728l-3.46731,-39.62095c0.11543,0.04945 0.22863,0.10237 0.33634,0.16384c0.73314,0.41803 1.67544,1.50203 2.69685,2.8802l2.80436,32.04611c-0.77696,1.43848 -1.56934,2.94975 -2.37024,4.53081zm2.87638,-5.4623l-2.64167,-30.18799c1.05224,1.49117 2.15561,3.19655 3.18209,4.74803l1.85477,21.19292c-0.7729,1.32964 -1.57441,2.74686 -2.39519,4.24704zm2.9064,-5.12099l-1.68943,-19.30499c1.13319,1.6825 2.12579,3.04958 2.7786,3.53115c0.10468,0.07695 0.20956,0.14558 0.31504,0.20913l1.01329,11.57717c-0.76012,1.21641 -1.57015,2.5479 -2.4175,3.98754zm2.93358,-4.80718l-0.91531,-10.45504c0.98773,0.37967 1.97243,0.28192 2.77231,0.06101l0.58282,6.65814c-0.72016,1.06667 -1.54134,2.31613 -2.43982,3.73589zm2.96036,-4.50169l-0.53211,-6.07882c0.36617,-0.13726 0.66802,-0.28331 0.8788,-0.38614c0.30551,-0.14905 0.8575,-0.51485 1.48738,-0.78822l0.36414,4.159c-0.454,0.61121 -1.20967,1.65131 -2.19821,3.09418zm2.72991,-3.73242l-0.3264,-3.72988c0.96157,-0.2803 1.985,-0.17377 2.55545,1.27048c1.00315,2.53981 -1.83123,2.47996 -2.22905,2.4594z"/>
   <path stroke="null" id="svg_8" d="m15.68557,62.05161c0.25033,1.03108 0.96096,1.7754 1.80892,2.02635c0.20489,0.06077 0.4179,0.09336 0.63435,0.09336c0.20976,0 0.42256,-0.0312 0.63455,-0.09336c0.014,-0.00416 0.0282,-0.00693 0.04199,-0.01155c1.34944,-0.42519 2.14161,-2.01641 1.76835,-3.55357l-0.98814,-4.07142l-0.63739,-2.62624l-1.44884,-5.97045c-0.05558,-0.22877 -0.1349,-0.44437 -0.23329,-0.64425c-0.12638,-0.25627 -0.28583,-0.48573 -0.47003,-0.684c-0.45908,-0.49428 -1.07517,-0.79053 -1.74076,-0.79053l-2.18482,0l-0.40796,0l-5.49573,0c0.03083,-1.50919 0.20672,-3.05027 0.43494,-4.52711c-0.98449,-0.63386 -1.68172,-1.313 -2.14182,-1.85258c-1.61579,-1.88077 -2.04566,-3.75022 -2.13877,-4.27847c-0.10245,-0.61098 0.00933,-1.22589 0.31444,-1.73634c0.3045,-0.51046 0.7654,-0.855 1.29791,-0.97031c0.12557,-0.02727 0.25419,-0.04159 0.38199,-0.04159c0.33168,0 0.64733,0.09451 0.92769,0.26043c0.52785,0.31265 0.92789,0.88181 1.05529,1.57875c0.00365,0.0134 0.00872,0.03559 0.01704,0.06632c0.02333,0.08804 0.06735,0.23224 0.14079,0.41641c0.14342,0.36049 0.41546,0.90653 0.89888,1.4676c0.04788,0.0543 0.09879,0.10537 0.14849,0.15806c0.00061,-0.00347 0.00142,-0.00716 0.00203,-0.01086c0.30855,-1.14293 0.2832,-2.40579 -0.03449,-3.44889c-0.31809,-1.04472 -0.92931,-1.86898 -1.79208,-2.13196c-1.72372,-0.52571 -4.25016,0.49567 -5.32269,3.85883c-1.45127,4.6341 -1.7937,7.66173 -1.34721,12.80513c0.54671,3.5293 2.57249,4.10215 4.36315,4.162c0.01014,0.00023 0.01988,0.00185 0.03002,0.00185l0,-0.00069l0.00609,0c0.09068,0.00277 0.18095,0.00462 0.27021,0.00485c0.16817,0.00092 0.32742,-0.00023 0.47875,-0.00485l8.02745,0l0.14079,0l0.42601,1.75506l2.1339,8.79403z"/>
   <path stroke="null" id="svg_9" d="m7.9119,36.48386c-0.01542,-0.0171 -0.03124,-0.0342 -0.04625,-0.0513c-0.51466,-0.59665 -0.81206,-1.18106 -0.97861,-1.59931c-0.08358,-0.20844 -0.13348,-0.37435 -0.15986,-0.47372c-0.01217,-0.04529 -0.01947,-0.07672 -0.02272,-0.09197c-0.11766,-0.66967 -0.54063,-1.18175 -1.07172,-1.38695c-0.25682,-0.09936 -0.5384,-0.12779 -0.82382,-0.06563c-0.88042,0.19087 -1.45817,1.15887 -1.29,2.16176c0.03895,0.22161 0.38584,2.13196 2.03227,4.04762c0.51141,0.60012 1.14942,1.18267 1.92556,1.6996c0.12131,0.08111 0.2483,0.15898 0.37631,0.2364c1.15063,0.69555 2.57777,1.24645 4.31649,1.52121c0.13531,0.02126 0.27427,0.03882 0.41323,0.05685c0.66092,0.08527 1.36039,0.13564 2.10915,0.13564c0.02475,0 0.0493,-0.00023 0.07425,-0.00023c0.53495,0 1.09424,-0.02426 1.67665,-0.06956c0.03327,-0.00254 0.06431,-0.00347 0.09758,-0.00601c0.10508,-0.00878 0.20651,-0.02958 0.3045,-0.05962c0.45745,-0.14027 0.8291,-0.50052 1.03196,-0.96846c0.12354,-0.28539 0.18562,-0.61005 0.16391,-0.95044c-0.02394,-0.3762 -0.14586,-0.71728 -0.33432,-0.99504c-0.28076,-0.4134 -0.71042,-0.68308 -1.18958,-0.7145c-0.06999,-0.00462 -0.14058,-0.00578 -0.2124,0c-0.06573,0.00531 -0.12963,0.00947 -0.19434,0.01433c-0.47206,0.03489 -0.92079,0.05246 -1.34416,0.05222c-0.9573,-0.00439 -1.79289,-0.08689 -2.52563,-0.22484c-0.14241,-0.02681 -0.28117,-0.05569 -0.41587,-0.08666c-1.5026,-0.34477 -2.53415,-0.93426 -3.26709,-1.55379c-0.12638,-0.10699 -0.24384,-0.21467 -0.35339,-0.32213c-0.10447,-0.10214 -0.20144,-0.20428 -0.29212,-0.30549z"/>
   <path stroke="null" id="svg_10" d="m9.62649,52.23204l-8.79081,0c-0.44812,0 -0.81145,0.41387 -0.81145,0.92432l0,0.46216c0,0.51046 0.36333,0.92432 0.81145,0.92432l0.1913,0l-0.9425,9.70518l1.76875,0l0.34791,-3.58176l6.06009,0l0.34791,3.58176l1.76875,0l-0.9425,-9.70518l0.1913,0c0.44812,0 0.81145,-0.41387 0.81145,-0.92432l0,-0.46216c-0.0002,-0.51046 -0.36353,-0.92432 -0.81165,-0.92432zm-7.31337,7.27883l0.48261,-4.96802l4.87071,0l0.48261,4.96802l-5.83593,0z"/>
   <path stroke="null" id="svg_11" d="m12.97676,27.13154c1.07922,-2.59481 0.10731,-5.6943 -2.17001,-6.92319c-0.08398,-0.04529 -0.16858,-0.08642 -0.25358,-0.12525c-0.13997,-0.06424 -0.28117,-0.12039 -0.42337,-0.16776c-2.11585,-0.70549 -4.42705,0.42334 -5.40079,2.76489c-1.07841,2.59389 -0.10691,5.69384 2.17022,6.92296c1.35491,0.73114 2.86684,0.63547 4.09659,-0.10815c0.13166,-0.07949 0.25987,-0.16684 0.38442,-0.26089c0.66823,-0.50514 1.22813,-1.21687 1.59652,-2.10261z"/>
  </g>
 </g>
</svg>