<svg width="211.661" height="278" xmlns="http://www.w3.org/2000/svg" xml:space="preserve" version="1.1">

 <g>
  <title>Layer 1</title>
  <g id="svg_1">
   <path id="svg_2" d="m44.72,157.139c-0.06,0.281 -0.125,0.579 -0.187,0.865c1.236,0.088 2.54,0.143 3.923,0.145c0.097,0 0.195,0.001 0.292,0.001c3.13,0 6.624,-0.292 10.361,-1.011l-1.648,-16.005c-3.303,0.732 -6.335,0.992 -9.006,1.013c-1.318,0.001 -2.542,-0.065 -3.659,-0.17c1.419,4.726 1.433,10.202 -0.076,15.162z"/>
   <path id="svg_3" d="m79.29,129.526l1.915,18.603c1.746,-1.127 3.499,-2.367 5.249,-3.735l-1.833,-18.39c-1.292,0.32 -2.524,0.962 -3.561,1.94c-0.594,0.554 -1.182,1.068 -1.77,1.582z"/>
   <path id="svg_4" d="m92.369,128.278c-0.212,-0.226 -0.438,-0.433 -0.669,-0.628l1.105,11.083c2.435,-3.062 2.324,-7.523 -0.436,-10.455z"/>
   <path id="svg_5" d="m84.353,198.245l-1.251,-12.149c-2.907,0.201 -5.757,0.311 -8.469,0.311l-0.366,0c-3.63,0 -7.017,-0.197 -10.188,-0.543l1.004,9.749l10.977,0c3.042,-0.001 5.914,0.968 8.293,2.632z"/>
   <path id="svg_6" d="m77.237,268.794l-7.361,-26.629l0.777,7.553l-2.336,0c-2.119,0 -3.837,1.719 -3.837,3.838c0,2.121 1.718,3.839 3.837,3.839l0.889,0l0,11.958l-0.889,0c-2.119,0 -3.837,1.719 -3.837,3.838c0,2.121 1.718,3.839 3.837,3.839l14.929,0c-2.862,-1.888 -5.052,-4.771 -6.009,-8.236z"/>
   <path id="svg_7" d="m165.636,94.996c-9.74,5.845 -20.374,-28.346 -41.041,-56.691c-15.067,-20.663 -45.109,-23.615 -59.159,-23.802l-0.704,-6.847c2.08,-0.179 3.644,-1.985 3.502,-4.078c-0.145,-2.115 -1.975,-3.713 -4.092,-3.569l-20.477,1.977c-2.114,0.144 -3.713,1.975 -3.568,4.089c0.145,2.117 1.975,3.714 4.09,3.569l1.732,-0.167l7.716,74.94c0.788,0.28 1.567,0.597 2.334,0.96c5.914,2.801 10.382,7.737 12.581,13.897c2.201,6.163 1.871,12.811 -0.932,18.726c-2.084,4.399 -5.419,7.985 -9.452,10.432l1.258,12.216l1.655,16.077l0.891,8.656c3.825,0.664 8.041,1.006 12.671,1.024c0.025,0 0.051,0 0.079,0c2.055,0 4.172,-0.085 6.33,-0.224l-1.737,-16.874l-1.877,-18.23l-8.572,-83.277c2.802,-0.754 6.183,-1.541 9.761,-2.107l7.983,80.079l1.706,17.117l2.753,27.622c0.955,1.407 1.572,3.064 1.702,4.862c0.118,1.622 -0.168,3.18 -0.76,4.586l5.212,52.289l7.968,28.82c1.031,3.734 0.549,7.643 -1.361,11.014c-1.149,2.026 -2.737,3.702 -4.628,4.947l38.212,0c2.121,0 3.839,-1.718 3.839,-3.839c0,-2.119 -1.718,-3.838 -3.839,-3.838l-0.885,0l0,-11.958l0.885,0c2.121,0 3.839,-1.718 3.839,-3.839c0,-2.119 -1.718,-3.838 -3.839,-3.838l-2.225,0c28.574,-115.187 91.325,-124.415 73.264,-154.132c-13.634,-22.43 -32.481,-6.789 -42.815,-0.589zm-64.425,148.222l-10.233,-102.655l-1.416,-14.201l-8.081,-81.063c4.661,-0.552 9.474,-0.628 13.667,0.287l17.607,176.635c-3.826,6.726 -7.686,13.725 -11.544,20.997zm14.013,-25.304l-17.092,-171.459c0.569,0.214 1.127,0.443 1.658,0.709c3.614,1.809 8.259,6.5 13.294,12.464l13.824,138.679c-3.83,6.225 -7.736,12.765 -11.684,19.607zm14.179,-23.638l-13.022,-130.638c5.187,6.453 10.626,13.833 15.686,20.547l9.143,91.712c-3.81,5.754 -7.761,11.887 -11.807,18.379zm14.327,-22.161l-8.328,-83.542c5.586,7.281 10.479,13.197 13.697,15.281c0.516,0.333 1.033,0.63 1.553,0.905l4.995,50.1c-3.747,5.264 -7.74,11.026 -11.917,17.256zm14.461,-20.803l-4.512,-45.244c4.869,1.643 9.723,1.22 13.666,0.264l2.873,28.813c-3.55,4.616 -7.598,10.023 -12.027,16.167zm14.593,-19.481l-2.623,-26.306c1.805,-0.594 3.293,-1.226 4.332,-1.671c1.506,-0.645 4.227,-2.228 7.332,-3.411l1.795,17.998c-2.238,2.645 -5.963,7.146 -10.836,13.39zm13.457,-16.152l-1.609,-16.141c4.74,-1.213 9.785,-0.752 12.597,5.498c4.945,10.991 -9.027,10.732 -10.988,10.643z"/>
   <path id="svg_8" d="m79.164,268.261c1.234,4.462 4.737,7.683 8.917,8.769c1.01,0.263 2.06,0.404 3.127,0.404c1.034,0 2.083,-0.135 3.128,-0.404c0.069,-0.018 0.139,-0.03 0.207,-0.05c6.652,-1.84 10.557,-8.726 8.717,-15.378l-4.871,-17.619l-3.142,-11.365l-7.142,-25.837c-0.274,-0.99 -0.665,-1.923 -1.15,-2.788c-0.623,-1.109 -1.409,-2.102 -2.317,-2.96c-2.263,-2.139 -5.3,-3.421 -8.581,-3.421l-10.77,0l-2.011,0l-27.091,0c0.152,-6.531 1.019,-13.2 2.144,-19.591c-4.853,-2.743 -8.29,-5.682 -10.558,-8.017c-7.965,-8.139 -10.084,-16.229 -10.543,-18.515c-0.505,-2.644 0.046,-5.305 1.55,-7.514c1.501,-2.209 3.773,-3.7 6.398,-4.199c0.619,-0.118 1.253,-0.18 1.883,-0.18c1.635,0 3.191,0.409 4.573,1.127c2.602,1.353 4.574,3.816 5.202,6.832c0.018,0.058 0.043,0.154 0.084,0.287c0.115,0.381 0.332,1.005 0.694,1.802c0.707,1.56 2.048,3.923 4.431,6.351c0.236,0.235 0.487,0.456 0.732,0.684c0.003,-0.015 0.007,-0.031 0.01,-0.047c1.521,-4.946 1.396,-10.411 -0.17,-14.925c-1.568,-4.521 -4.581,-8.088 -8.834,-9.226c-8.497,-2.275 -20.951,2.145 -26.238,16.699c-7.154,20.054 -8.842,33.156 -6.641,55.414c2.695,15.273 12.681,17.752 21.508,18.011c0.05,0.001 0.098,0.008 0.148,0.008l0,-0.003l0.03,0c0.447,0.012 0.892,0.02 1.332,0.021c0.829,0.004 1.614,-0.001 2.36,-0.021l39.571,0l0.694,0l2.1,7.595l10.519,38.056z"/>
   <path id="svg_9" d="m40.844,157.617c-0.076,-0.074 -0.154,-0.148 -0.228,-0.222c-2.537,-2.582 -4.003,-5.111 -4.824,-6.921c-0.412,-0.902 -0.658,-1.62 -0.788,-2.05c-0.06,-0.196 -0.096,-0.332 -0.112,-0.398c-0.58,-2.898 -2.665,-5.114 -5.283,-6.002c-1.266,-0.43 -2.654,-0.553 -4.061,-0.284c-4.34,0.826 -7.188,5.015 -6.359,9.355c0.192,0.959 1.902,9.226 10.018,17.516c2.521,2.597 5.666,5.118 9.492,7.355c0.598,0.351 1.224,0.688 1.855,1.023c5.672,3.01 12.707,5.394 21.278,6.583c0.667,0.092 1.352,0.168 2.037,0.246c3.258,0.369 6.706,0.587 10.397,0.587c0.122,0 0.243,-0.001 0.366,-0.001c2.637,0 5.394,-0.105 8.265,-0.301c0.164,-0.011 0.317,-0.015 0.481,-0.026c0.518,-0.038 1.018,-0.128 1.501,-0.258c2.255,-0.607 4.087,-2.166 5.087,-4.191c0.609,-1.235 0.915,-2.64 0.808,-4.113c-0.118,-1.628 -0.719,-3.104 -1.648,-4.306c-1.384,-1.789 -3.502,-2.956 -5.864,-3.092c-0.345,-0.02 -0.693,-0.025 -1.047,0c-0.324,0.023 -0.639,0.041 -0.958,0.062c-2.327,0.151 -4.539,0.227 -6.626,0.226c-4.719,-0.019 -8.838,-0.376 -12.45,-0.973c-0.702,-0.116 -1.386,-0.241 -2.05,-0.375c-7.407,-1.492 -12.492,-4.043 -16.105,-6.724c-0.623,-0.463 -1.202,-0.929 -1.742,-1.394c-0.515,-0.442 -0.993,-0.884 -1.44,-1.322z"/>
   <path id="svg_10" d="m49.296,225.767l-43.334,0c-2.209,0 -4,1.791 -4,4l0,2c0,2.209 1.791,4 4,4l0.943,0l-4.646,41.999l8.719,0l1.715,-15.5l29.873,0l1.715,15.5l8.719,0l-4.646,-41.999l0.943,0c2.209,0 4,-1.791 4,-4l0,-2c-0.001,-2.209 -1.792,-4 -4.001,-4zm-36.051,31.499l2.379,-21.499l24.01,0l2.379,21.499l-28.768,0z"/>
   <path id="svg_11" d="m65.811,117.145c5.32,-11.229 0.529,-24.642 -10.697,-29.96c-0.414,-0.196 -0.831,-0.374 -1.25,-0.542c-0.69,-0.278 -1.386,-0.521 -2.087,-0.726c-10.43,-3.053 -21.823,1.832 -26.623,11.965c-5.316,11.225 -0.527,24.64 10.698,29.959c6.679,3.164 14.132,2.75 20.194,-0.468c0.649,-0.344 1.281,-0.722 1.895,-1.129c3.294,-2.186 6.054,-5.266 7.87,-9.099z"/>
  </g>
 </g>
</svg>