<svg width="59" height="64" xmlns="http://www.w3.org/2000/svg" xml:space="preserve" enable-background="new 0 0 66 66" version="1.1">

 <g>
  <title>Layer 1</title>
  <g id="svg_1">
   <path id="svg_2" d="m36.6045,42.60112l0.1,-2l-14.5,0l0.2,2c0,0.3 0.3,0.6 0.6,0.6l0.3,0c-0.1,0.6 -0.2,1.2 -0.2,1.8l5.5,3.3c0.2,-1.5 0.4,-3.1 0.6,-4.7c0,-0.1 0,-0.3 0,-0.4l0.4,0c0,1.9 0,3.7 0.1,5.4l5.9,-3.5c0,-0.6 0,-1.2 0,-1.9c0,0 0,0 0,0l0.4,0c0.3,0 0.6,-0.2 0.6,-0.6z"/>
   <path id="svg_3" d="m21.9045,53.30112l3.6,-2.2l-3.1,-1.8c-0.2,1.3 -0.3,2.7 -0.5,4z"/>
   <path id="svg_4" d="m21.4045,61.10112c0,1.6 1.3,3 3,3c0,0 0,0 0,0c1.6,0 3,-1.3 3,-3c0,-2.3 0.2,-4.5 0.4,-6.7l-6.3,3.8c-0.1,0.9 -0.1,1.9 -0.1,2.9z"/>
   <path id="svg_5" d="m36.0045,52.80112c-0.2,-1 -0.3,-2 -0.3,-3.1l-2.4,1.4l2.7,1.7z"/>
   <path id="svg_6" d="m37.5045,58.20112l-7.3,-4.3c0.5,2.8 1.2,5.5 2.5,8.4c0.6,1.5 2.4,2.2 3.9,1.6c1.5,-0.6 2.2,-2.4 1.6,-3.9c-0.3,-0.6 -0.5,-1.2 -0.7,-1.8z"/>
   <circle id="svg_7" r="5.8" cy="5.90112" cx="29.5045"/>
   <path id="svg_8" d="m45.0045,40.60112c-3.2,1.9 8.2,-4.9 -15.6,9.3c-23.8,-14.2 -12.4,-7.4 -15.6,-9.3l-3.9,0c3.6,2.1 -9.2,-5.5 17.6,10.5c-26.5,15.8 -13.8,8.2 -17.4,10.4l3.9,0c3.2,-1.9 -8.1,4.8 15.5,-9.2c23.5,14 12.3,7.3 15.5,9.2l3.9,0c-3.6,-2.1 9.1,5.4 -17.4,-10.4c26.8,-16 13.9,-8.3 17.6,-10.5l-4.1,0z"/>
   <path id="svg_9" d="m0.5045,33.80112l0,5.8l57.9,0l0,-5.8l-57.9,0zm2.7,4.4c-0.6,0 -1,-0.5 -1,-1c0,-0.6 0.5,-1 1,-1c0.6,0 1,0.5 1,1c0,0.5 -0.4,1 -1,1zm2.5,0c-0.6,0 -1,-0.5 -1,-1c0,-0.6 0.5,-1 1,-1c0.6,0 1,0.5 1,1c0.1,0.5 -0.4,1 -1,1zm8.5,0c-0.6,0 -1,-0.5 -1,-1c0,-0.6 0.5,-1 1,-1c0.6,0 1,0.5 1,1c0,0.5 -0.5,1 -1,1z"/>
   <path id="svg_10" d="m20.3045,32.20112c0.8,0.8 2,0.8 2.8,0c0.8,-0.8 0.8,-2 0,-2.8l-4.1,-4l1.8,-3.1l0.3,3.8l2.7,2.7c1.1,1.1 1.2,2.9 0.1,4.1l11.2,0c-1,-1.2 -1,-3 0.1,-4.1l2.7,-2.7l0.3,-3.8l1.8,3.1l-4.1,4c-0.8,0.8 -0.8,2 0,2.8c0.8,0.8 2,0.8 2.8,0l5.2,-5.1c0.6,-0.6 0.8,-1.6 0.3,-2.4l-4.9,-8.4c-2.5,-4.3 -16.1,-5.9 -19.6,0l-4.9,8.4c-0.5,0.8 -0.3,1.8 0.3,2.4l5.2,5.1z"/>
  </g>
 </g>
</svg>