<svg width="115.03100000000002" height="230.99999999999997" xmlns="http://www.w3.org/2000/svg" xml:space="preserve" version="1.1">

 <g>
  <title>Layer 1</title>
  <g id="svg_1">
   <path id="svg_2" d="m78.346,41.953c-2.775,-10.09 -4.925,-17.88 -5.442,-19.119c-3.842,-9.212 -13.023,-9.159 -17.197,-7.672c-4.173,1.487 -5.588,6.177 -8.842,8.73c-0.514,0.403 -1.203,0.716 -1.997,0.956c0.172,-1.65 0.17,-3.344 -0.038,-5.061c-1.496,-12.332 -12.707,-21.118 -25.039,-19.621c-12.334,1.493 -21.12,12.705 -19.625,25.038c1.497,12.333 12.707,21.119 25.04,19.623c9.077,-1.101 16.224,-7.464 18.774,-15.661c5.068,-2.094 9.172,-5.794 11.641,-7.484c3.508,-2.401 7.027,-0.475 8.562,2.17c0.482,0.831 3.05,9.925 6.436,22.203c0.174,-0.199 0.35,-0.386 0.523,-0.591c1.809,-2.136 4.416,-3.393 7.204,-3.511z"/>
   <path id="svg_3" d="m33.633,58.92c-0.269,-0.123 -0.455,-0.217 -0.551,-0.266l-0.012,-0.004c-3.836,-2.191 -8.723,-0.858 -10.914,2.978c-1.607,2.812 -1.313,6.185 0.466,8.651c0.648,0.897 1.488,1.68 2.513,2.265c0.719,0.38 8.49,4.807 20.293,4.848c0.016,0 0.033,0 0.049,0c0.355,0 0.725,-0.018 1.087,-0.026c2.385,-0.06 4.914,-0.313 7.546,-0.833c3.35,-0.662 6.855,-1.738 10.424,-3.387c3.827,-1.762 7.698,-4.159 11.516,-7.291c2.375,-1.948 4.729,-4.186 7.039,-6.728c0.598,-0.657 1.193,-1.327 1.785,-2.026c2.855,-3.37 2.438,-8.418 -0.934,-11.273c-1.47,-1.247 -3.261,-1.869 -5.049,-1.896c-2.31,-0.033 -4.616,0.928 -6.223,2.827c-0.473,0.558 -0.944,1.086 -1.413,1.602c-4.733,5.2 -9.271,8.336 -13.42,10.257c-4.566,2.099 -8.732,2.768 -12.406,2.772c-0.597,0.001 -1.174,-0.023 -1.742,-0.057c-3.044,-0.182 -5.657,-0.811 -7.543,-1.435c-1.118,-0.37 -1.977,-0.732 -2.511,-0.978z"/>
   <path id="svg_4" d="m114.019,67.513l-17.132,-11.523c-1.057,-0.719 -2.495,-0.444 -3.212,0.611c-0.664,0.976 -0.473,2.271 0.392,3.03c1.355,5.775 -0.009,18.456 0.045,21.859c0.061,3.668 3.156,14.683 0.916,15.249c-0.54,0.137 -2.011,-3.866 -3.954,-10.063c1.78,-2.289 2.256,-5.466 0.953,-8.279c-0.956,-2.063 -2.683,-3.521 -4.679,-4.201c-1.176,-4.075 -2.406,-8.425 -3.63,-12.81c-2.281,2.426 -4.648,4.617 -7.094,6.566c0.701,2.559 1.406,5.131 2.107,7.689c-5.208,2.058 -9.775,2.826 -13.834,2.829c-2.457,0.001 -4.762,-0.293 -6.925,-0.79c-3.631,1.009 -7.342,1.559 -11.101,1.671c-0.465,0.014 -0.929,0.038 -1.395,0.038l-0.004,0l-0.052,0c-9.284,-0.033 -16.228,-2.647 -19.737,-4.326c-0.551,-0.263 -1.025,-0.506 -1.402,-0.709l-0.027,-0.015l-0.111,-0.062c-2.32,-1.325 -3.984,-3.473 -4.689,-6.05c-0.702,-2.578 -0.359,-5.276 0.966,-7.594c1.775,-3.109 5.104,-5.04 8.69,-5.04c1.729,0 3.441,0.455 4.952,1.317c0.013,0.004 0.17,0.083 0.396,0.186c0.393,0.183 1.191,0.529 2.313,0.902c1.446,0.476 3.539,1.022 6.045,1.263c-3.031,-6.398 -8.592,-11.062 -14.717,-10.415c-8.748,0.925 -18.789,9.518 -18.506,24.999c0.514,21.284 3.636,34.123 13.672,54.11c4.309,7.166 9.264,10.095 14.221,10.819c1.005,5.27 1.883,12.574 1.887,22.124c-0.002,13.619 -1.792,31.77 -7.628,54.889c-1.691,6.692 2.364,13.491 9.059,15.181c1.027,0.26 2.057,0.384 3.07,0.384c5.589,0 10.679,-3.777 12.111,-9.443c6.298,-24.954 8.388,-45.19 8.388,-61.01c0.008,-15.6 -2.038,-26.883 -4.001,-34.112c-0.208,-2.209 -1.052,-5.003 -2.628,-8.645c-4.171,-7.957 -6.794,-17.297 -8.668,-26.412c4.665,1.665 9.956,2.744 15.821,2.745c0.009,0 0.019,0 0.028,0c5.637,0 11.719,-1.04 18.075,-3.35c3.987,14.361 7.299,25.923 8.298,28.117c2.919,6.411 11.986,7.154 16.611,2.305c4.623,-4.85 0.771,-18.39 -2.523,-33.153c-2.519,-11.295 3.17,-15.658 5.985,-17.087l0.047,0.031c1.057,0.719 2.495,0.444 3.212,-0.611c0.719,-1.057 0.446,-2.495 -0.611,-3.214z"/>
  </g>
 </g>
</svg>