<svg width="175.50000000000003" height="287.72749999999996" xmlns="http://www.w3.org/2000/svg" xml:space="preserve" version="1.1">

 <g>
  <title>Layer 1</title>
  <g stroke="null" id="svg_1">
   <path stroke="null" id="svg_2" d="m150.58768,89.48671l2.74025,0.85199l-1.08383,3.42764c-0.88174,-0.12558 -1.63356,-0.00739 -1.79596,0.50848c-0.46192,1.45773 0.31877,3.02381 1.74423,3.49659c1.42425,0.47278 2.95316,-0.3275 3.41629,-1.78523c0.1636,-0.51464 -0.37772,-1.06252 -1.16322,-1.48974l1.09826,-3.47074l4.11639,1.28044l-1.12473,3.54707c-0.88054,-0.12558 -1.63116,-0.00739 -1.79475,0.50848c-0.46192,1.45773 0.31877,3.02258 1.74423,3.49659c1.42425,0.47278 2.95316,-0.32627 3.41629,-1.784c0.16239,-0.51587 -0.37772,-1.06252 -1.16202,-1.48851l1.13555,-3.59016l1.51808,0.47155c0.72295,1.23735 1.98,2.59289 4.18375,3.32299c4.69619,1.55746 6.92761,-1.9736 6.92761,-1.9736s0.21773,-4.19837 -4.48087,-5.75706c-2.20014,-0.72887 -3.99609,-0.38783 -5.29043,0.17975l-1.50004,-0.52941l1.13555,-3.5877c0.88174,0.12558 1.63116,0.00492 1.79475,-0.50848c0.46192,-1.45896 -0.31998,-3.02504 -1.74303,-3.49659c-1.42546,-0.47278 -2.95557,0.32627 -3.41629,1.78523c-0.1648,0.51464 0.37651,1.06129 1.16202,1.48974l-1.12353,3.54707l-4.06586,-1.43434l1.09826,-3.47074c0.88054,0.12558 1.63116,0.00616 1.79355,-0.50848c0.46312,-1.45896 -0.31757,-3.02381 -1.74183,-3.49536c-1.42546,-0.47401 -2.95437,0.32627 -3.41629,1.784c-0.1648,0.51464 0.37651,1.06129 1.16202,1.48974l-1.08503,3.42764l-3.65567,-1.28906c0.15999,1.68797 -0.01804,3.40671 -0.54372,5.0442z"/>
   <path stroke="null" id="svg_3" d="m59.85397,60.19168c-0.52447,2.12381 -0.82039,4.04201 -0.94549,5.79769c-0.60627,8.45091 3.02414,12.86598 7.65657,15.09813l8.19428,-10.31371l1.46997,-1.85048l2.33126,-2.93394l13.88769,-17.48049c-1.29915,-1.18687 -3.67732,-3.18141 -6.62447,-4.83982c-4.86941,9.91111 -14.73935,16.41181 -25.9698,16.52262z"/>
   <path stroke="null" id="svg_4" d="m89.00429,68.45422l-11.75732,14.79895c3.30321,0.03078 5.72589,-0.38906 5.72589,-0.38906s1.58304,-4.90385 9.10128,-3.44119c0.78551,0.15267 1.61552,0.35335 2.53575,0.65869c0.17683,0.0591 0.33682,0.11696 0.50162,0.17606c8.93768,3.15186 1.58184,5.8297 15.09061,10.31125c2.69574,0.89508 5.02699,0.99973 7.05151,0.61683c0.43546,-0.40137 0.87091,-0.80274 1.31599,-1.23119c4.88625,-4.66992 9.44772,-9.9542 10.73123,-11.46118c0.46192,-0.54173 0.68446,-0.81013 0.69288,-0.82121c0.15157,-0.18222 0.31877,-0.34597 0.47876,-0.51833l-1.28111,-0.45185c0.77107,-4.66376 0.83603,-13.72166 -9.19751,-17.05204c-13.76138,-4.56527 -8.90641,2.3602 -18.64042,-0.86799c-1.38215,-0.45924 -2.50688,-0.97634 -3.45839,-1.52176l-8.84987,11.13984l-0.0409,0.05417z"/>
   <path stroke="null" id="svg_5" d="m65.6773,3.06674c-14.55531,-3.46704 -29.1022,5.79523 -32.49322,20.69268c-3.38982,14.89991 5.66214,29.78627 20.21985,33.25701c1.54575,0.36813 3.0915,0.58482 4.62402,0.67469c0.84325,0.04802 1.68288,0.0591 2.5153,0.02709c9.77972,-0.36566 18.68733,-6.17567 23.1261,-15.14122c0.35847,-0.72517 0.69288,-1.46758 0.9912,-2.23215c0.50282,-1.28783 0.91783,-2.63106 1.23419,-4.02354c3.38742,-14.89745 -5.66454,-29.78504 -20.21744,-33.25455z"/>
   <path stroke="null" id="svg_6" d="m146.5146,91.99588c0.26103,-0.31519 0.49079,-0.64515 0.70611,-0.98249c0.4547,-0.71163 0.80956,-1.46389 1.06579,-2.24324c0.55815,-1.69905 0.64356,-3.51013 0.27787,-5.23504c-0.22374,-1.05636 -0.61469,-2.07826 -1.17525,-3.02135c-0.52447,-0.88153 -1.18608,-1.69535 -1.99684,-2.3996c-2.7607,-2.39344 -6.45606,-2.91424 -9.61853,-1.69535c-0.98158,0.37798 -1.90783,0.92832 -2.74265,1.63872c-0.42583,0.3632 -0.83242,0.75965 -1.20292,1.20657c0,0 -0.22976,0.27702 -0.71453,0.8446c-0.51725,0.60821 -1.30156,1.51683 -2.27472,2.61259c-2.19653,2.47347 -5.36141,5.90604 -8.62733,9.02834c-0.61589,0.5922 -1.2354,1.16963 -1.85129,1.72737c-1.72138,1.56362 -3.39945,2.95856 -4.80445,3.95583c-0.42102,0.30287 -0.81077,0.56019 -1.16322,0.78181c-0.30915,0.1933 -0.5774,0.35089 -0.80716,0.47401c-1.79475,-0.38659 -3.66168,-1.35801 -5.74273,-3.11246c-3.31885,-2.76526 -6.56553,-7.43641 -8.97016,-11.84532c-0.64837,-0.40999 -1.57703,-0.83106 -3.0109,-1.3063c-0.62552,-0.20807 -1.21856,-0.36443 -1.79235,-0.49371c-0.95632,-0.21669 -1.84768,-0.33858 -2.64762,-0.33858c-3.29118,0 -4.10195,1.88003 -4.18495,2.09426l-0.4956,1.30014l-1.36772,0.3078c-0.09864,0.01477 -2.48403,0.42846 -5.77521,0.42846c-0.40659,0 -0.8252,-0.00739 -1.24983,-0.02216c-0.33441,-0.00985 -0.67243,-0.02462 -1.01647,-0.04555l-26.99709,33.98957c0.34644,1.07853 0.55094,2.20137 0.59905,3.34515c0.07819,1.8985 -0.26224,3.84132 -1.09466,5.68073c-1.96557,4.3338 -6.25036,7.13354 -10.91768,7.13354c-0.45711,0 -0.91061,-0.02832 -1.3593,-0.08126l-8.46614,10.65598c-0.02646,0.03324 -0.06255,0.05787 -0.09022,0.09111l0,13.2378l0,110.80745c0,8.40905 6.66056,15.22125 14.87168,15.22125c8.21352,0 14.87408,-6.8122 14.87408,-15.22125l0,-101.29155l5.57553,0l0,101.29155c0,8.40905 6.66056,15.22125 14.87168,15.22125c8.21352,0 14.87408,-6.8122 14.87408,-15.22125l0,-110.80745l0,-23.31635l0,-26.99023c0.47876,0.44692 0.96354,0.89138 1.46756,1.3223c4.56387,3.90288 10.52914,7.1557 17.59629,7.7479c0.20089,0.01724 0.39335,0.05048 0.59665,0.06279c0.05173,0.00369 0.10105,0.01354 0.15277,0.01601c0.14435,0.00739 0.2875,0.00985 0.43064,0.01231c0.02646,0 0.05293,0.00369 0.07939,0.00369c0.02646,0 0.05293,-0.00369 0.07939,-0.00369c0.30434,-0.00246 0.61108,-0.01847 0.92144,-0.05048c0.01203,-0.00123 0.02286,0 0.03488,-0.00123l0,-0.00246c2.88821,-0.34473 5.00654,-1.2866 6.97572,-2.30726c0.83122,-0.44692 1.63597,-0.92586 2.42268,-1.43065c2.42268,-1.55377 4.6589,-3.3587 6.87708,-5.28059c8.66101,-7.59154 16.62673,-17.29827 16.80717,-17.49403z"/>
   <path stroke="null" id="svg_7" d="m28.44578,132.97371l-1.33764,1.68304l-0.10345,0.12928l-5.50816,6.93408c-0.83723,1.05267 -0.68205,2.60398 0.34885,3.46335c1.0309,0.85814 2.54658,0.69686 3.38381,-0.35582l1.77551,-2.23339l5.94843,-7.48812c-0.36809,-0.13297 -0.73378,-0.27825 -1.09225,-0.44939c-1.18006,-0.56266 -2.3096,-1.12285 -3.41508,-1.68304z"/>
   <path stroke="null" id="svg_8" d="m81.66047,65.98937l-0.21893,0.27579l-8.1221,10.22383l-4.39667,5.53545l-1.62514,2.04501l-23.37029,29.41692c1.35569,0.99357 2.47079,2.24077 3.2996,3.65295l25.24805,-31.78081l1.79836,-2.26293l0.66642,-0.83967l12.06046,-15.18185l0.02406,-0.02955l8.88355,-11.18293l1.51087,-1.90219l29.12625,-36.66249c0.83843,-1.05513 0.68205,-2.60644 -0.34885,-3.46458c-1.0297,-0.85814 -2.54537,-0.69809 -3.38381,0.35705l-27.10174,34.11392l-2.31081,2.90931l-11.73928,14.77679z"/>
   <path stroke="null" id="svg_9" d="m27.79861,129.88464c0.17322,0.08988 0.34764,0.18099 0.52207,0.27086c0.55094,0.28564 1.1115,0.57251 1.68168,0.85937c0.93346,0.46908 1.88618,0.93817 2.87377,1.40972c0.56417,0.2684 1.14157,0.46293 1.72258,0.6119c0.77107,0.19822 1.54936,0.30534 2.32283,0.30534c0.19006,0 0.37651,-0.02955 0.56657,-0.04063c3.4211,-0.20807 6.62567,-2.25924 8.16902,-5.66472c0.824,-1.81847 1.05616,-3.7613 0.7843,-5.60563c-0.00601,-0.04309 -0.00962,-0.08741 -0.01684,-0.13051c-0.15036,-0.93694 -0.43185,-1.84556 -0.83483,-2.69755c-0.70611,-1.49713 -1.78994,-2.81328 -3.18412,-3.79946c-0.44628,-0.31642 -0.91783,-0.60575 -1.42786,-0.84706c-0.2466,-0.11696 -0.48117,-0.23146 -0.72295,-0.34843c-5.81731,-2.79604 -10.17067,-5.44803 -13.24774,-7.7516c-1.20292,-0.9 -2.21217,-1.7483 -3.03857,-2.5301c-0.23938,-0.22777 -0.46914,-0.45062 -0.67845,-0.66608c-2.90505,-3.04105 -2.8461,-4.28948 -2.87377,-4.5862c-0.01323,-0.31395 0.14074,-1.23735 1.58184,-2.95117c1.11751,-1.35678 2.95316,-2.85268 5.00654,-4.24762l0,11.88595c2.56703,2.12135 7.10203,5.22026 14.81033,8.87937l23.18625,-29.18545c-2.13157,-1.113 -4.07428,-2.64953 -5.58635,-4.77703c-2.28675,-3.21957 -3.26592,-7.33299 -2.93753,-12.28732l-20.17534,0c-1.47237,0 -2.85813,0.35951 -4.09473,0.98249c-2.12074,0.78796 -7.72273,3.00165 -13.71567,6.694c-3.70499,2.31095 -7.60485,5.16732 -10.97663,9.08621c-3.31524,3.84994 -6.32975,9.25242 -6.34539,15.92057c-0.02646,6.78018 3.28758,13.28089 8.54433,18.54917c2.13759,2.16321 4.62522,4.24146 7.50741,6.28032c2.84971,2.01423 6.09037,3.98784 9.78454,5.96144c0.26103,0.14036 0.52688,0.27948 0.79272,0.41984z"/>
  </g>
 </g>
</svg>